<svg version="1" xmlns="http://www.w3.org/2000/svg" width="682.7" height="682.7" viewBox="0 0 512.000000 512.000000"><path fill="#E91E63" d="M235 .6c-2 .2-8.4 1-14.5 2-55 7.5-106 33-145.5 72.4-39.3 39.3-64 88.6-72.7 145-2.5 16.2-2.5 55.8 0 72C11 348.5 35.6 397.5 75 437c39 39 88.7 64 144.5 72.6 16.7 2.6 56 2.6 72.5 0C392 494.3 471.5 426 501 330c8-25 11.6-53.5 10.7-81.4-1.3-38.5-9.3-70.6-26.2-105-13.3-27-28-47.8-48.6-68.4-21-20.5-42-35.2-69-48.5-25-12.4-48-19.6-76.7-24-10-1.6-49-3-57-2zm126.8 132l.2 35.4h-71v92.8c0 89 0 93.2-2 100.6-5 19.5-18.5 36.3-36 45-12.3 6-19.2 7.7-31.5 7.7-12.7 1-21.5-2-32.5-7-7-3-10.3-6-17.6-13-7.4-7-9.8-10.4-13.2-17.3-5.8-11.7-7.6-19.3-7.6-32 0-12.5 1.8-20 7.6-32 3.4-7 5.8-10 13.2-17.4 7.4-7.4 10.7-10 17.6-13.2 11.6-5.6 19.4-7.5 31.5-7.5 11 0 21.8 2.6 30.6 7l5 2.5v-93c0-50.8 1-92.7 1-93 .7-.4 24-.6 53-.5l52 .3.5 35.2z"/></svg>