<svg version="1" xmlns="http://www.w3.org/2000/svg" width="400" height="400" viewBox="0 0 300.000000 300.000000"><g fill="#e91e63"><path d="M133.5 2c-29 3-58.3 16-81.2 35.8C16.7 68.6-2.4 116 2 162.8 3.7 184 8.3 200 18 219c37 71.4 125 100.7 197 65.5 30.7-15 54-38 69-68.2 20.4-41.5 20.6-89 .6-130.7-14-29.2-37-52.7-65.6-67.5-27.2-14-55-19-85.5-16zm-12.7 101.2l-.3 30.3 5-5c7-7 15.7-10.7 27-11.3 6.8-.3 10.6 0 15 1.3 18.3 5.2 33.5 23 36.6 42.5 1.8 9 1 22.3-1.2 30-2.3 7.6-9.6 19-15.6 24.4-18.6 16.7-47.2 16.4-63-.7l-4-4V224h-20V73h21.3l-.4 30.2z"/><path d="M143.8 137c-5 1.2-10.6 5-14.6 9.4-4 4.7-5.7 8-7.6 15.3-5.6 21.5 5.8 43 25 46.4 14 3 27-4 34.6-18 2-4 2.3-5.6 2.3-17.2 0-13 0-13-3.5-19.4-7.2-13.3-21.2-19.5-36.2-16z"/></g></svg>