<svg version="1" xmlns="http://www.w3.org/2000/svg" width="400" height="400" viewBox="0 0 300.000000 300.000000"><path d="M122.5 4C107 7.2 98 10.2 84.7 16.7 42 37.5 12.7 77 3.7 125c-2.5 12.5-2.3 38.6.4 52.4 6 29.5 19 55.3 40 76.2 12.7 13 25 22 39.5 29.2 20.4 10 30.4 13 54 15.7 11.4 1.3 14.5 1.3 25.8 0 22.8-2.5 38.8-7 55-15.5 30-15.6 49.8-35.5 65.4-65.4 8.5-16.2 13-32.3 15.6-54.2 1.2-12 1.2-15 0-26.4-3-23.8-5.8-33.7-15.8-54C263.5 42.2 224 12.8 178 4c-14.7-2.7-41.7-2.7-55 0zm48.7 68.4c9.8 2 17.3 4.8 24.8 9.7 6.4 4.7 16 13 16 14s-.8 2-2 3l-7 7-5 5-4.7-4.7c-6-6-11.2-9-18.8-11.5-16-5.5-35.6-3.2-49.4 5.7-16.3 11-26 28.8-26 50 0 26.8 13 46.6 37 56 5.3 2.4 7.5 2.7 19.5 2.7 10.4 0 15-.4 19.3-2 7.6-2.4 16.2-8 22.3-14 2.8-2.5 5.4-5 5.8-5 1 0 13.7 13.7 13.7 15 0 2.3-19.5 18.3-22.3 18.3 0 0-3 1-5.6 2.5-7.4 3.3-8.3 3.6-17.4 5.2-11 2-19.6 1.7-31.7-.8-32-6.5-56.8-32.8-61-65-2.6-21 1.4-41 11.3-56.4 4.6-7 15-17.8 22-22.6 16.3-11 39.5-15.5 60-11.6z" fill="#f57c00"/></svg>