<svg version="1" xmlns="http://www.w3.org/2000/svg" width="400" height="400" viewBox="0 0 300.000000 300.000000"><g fill="#f44336"><path d="M126 16c-37.2 6.8-71.6 30-91.4 61.8-8.3 13.3-16 33-18.7 48.2-2 9.5-2 38.2-1 47.5 9 50 45.2 91.3 93.3 106.4 14.5 4 22 5 40.5 5s26.6-1 41.5-6c35.4-12 63.7-36 80.4-69 33-66 7-146-57.8-181-14.5-7-25.7-11-43.3-14-10.8-2-32.5-1.7-44.5.5zm-.2 55.3L136 81.6l7-1c4.5-.6 9.5-.6 14 0l7 1 10.2-10.3C180 65.6 185 61 185.5 61c.6 0 4.2 3.2 8 7l7 7-7.8 7.8-7.8 8 6 6c3 3.5 7 7.8 8 9.7l2 3.5h29v21h-21v9.5l.3 9.5h20v20h-20v19h20v21H215c-14 0-14.4 0-15 2.2-.5 1.2-4 5.6-8.4 9.8-8 8-17.4 13.6-28 16-7 1.8-21 1.7-28 0-12-3-28-13.4-34-23.2l-3-4.7H70v-21h20.5l-.3-9-.3-9H70v-20h20l.2-9.2.3-9.5H70v-21h28.5l2.5-4c1.4-2.2 5-6.6 8.3-9.6l6-5.6-8-7.6-7.7-8 7-7c3.7-4 7.3-7 8-7 .5 0 5.5 4.6 11.2 10.3z"/><path d="M131 140.5v9.5h38v-19h-38v9.5zm0 39v9.5h38v-19h-38v9.5z"/></g></svg>