<svg xmlns="http://www.w3.org/2000/svg" xmlns:xlink="http://www.w3.org/1999/xlink" width="1000" height="883.63">
  <defs>
    <linearGradient id="a">
      <stop offset="0" stop-color="#c7d1bd"/>
      <stop offset="1" stop-color="#638e30"/>
    </linearGradient>
    <linearGradient xlink:href="#a" id="b" x1="588.93" y1="785.83" x2="894.24" y2="962.11" gradientUnits="userSpaceOnUse" gradientTransform="translate(-127.908 462.572) scale(.62464)"/>
  </defs>
  <path d="M641.5 2.28v45.6h-24.37c-13.16.26-23.64 5.9-32.9 13.93-8.5-7.4-18.77-13.2-35-13.7-6.9.2-13.95.6-21.64 2.3v-2.3h-97.5v5.5c-4-2.1-9.3-4.8-21.3-5.4h-72.6c-9.7.9-19.4 2-32.9 13.4-9.6-7.1-19.5-13.8-36.5-13.1H51.6C27.1 48.5 7.06 69 7.06 93.2v235.3H127.6v56.8h22.3v84.9c-.27 7.45 2.8 12.25 5.27 16.97H49.3c-21.47 0-47 18.5-47 44.92v136c0 28.5 32.23 42 48.67 42h213.37c18.13-1.2 29.9-10.3 37.03-18.3 8.52 11.5 22.42 17.3 35.35 18.7h79.86c12.57-1.7 22.8-6 30.37-13.3 8.6 6.7 19.48 11.4 34.1 12.8h76.13c3.06 8.6 4.6 18.6 2.67 32.2-4.5 34.6 8.22 48.4 25.2 48.7 26.87-.2 48.72-22.8 49.57-42 10.12 1.2 27.82 22.4 43.1 20.4l58.7 112h56.64l52.47-112.2c16.2 3.8 35.06-19.6 45.6-20.2.78 20.5 21.93 40.5 49.34 42 26.55-1.8 28.98-28 25-54.3-1.34-10.6.76-21.3 3.74-31.9 2.2-6.8 10.9-15.5 10.3-22.7 1.2-30.9-33.3-60.2-58.1-76.9 12.6-25.6 26.6-45.1 45.8-44.4h30.6v-72H882.6c6.12-9.3 7.33-16.7 7.28-23.6V299.4H819.5v-18.12h-97.86v6.24h-104.1c-13.73.62-23.13 7-32.27 13.74-8.6-6.8-17.82-13.07-33.32-13.74H477.2c-11.44.68-21.52 4.86-32.9 13.33-7.53-6.33-16.15-12.15-35.18-13.1H388.7v-16.68h350.64V2.27H641.5zm29.1 428.42h50.9l.35 34.3c.3 10.62 3.2 17.97 7.13 24.1h-58.4v-58.4z" stroke="#949496" stroke-width="4.56"/>
  <path d="M99.53 114.06h-13.8v91.4h13.8zM156.4 285c0 12-12.34 22.66-28.27 22.66H28.86v-45.33h70.67V250.8h-42.4c-16.2 0-27.07-9.76-28.27-22.66V91.4c0-9.6 9.02-23.03 28.26-23.03h99.27z" style="-inkscape-font-specification:Pricedown" fill="#fff" font-family="Pricedown" font-size="563.84" letter-spacing="0" word-spacing="0"/>
  <path d="M81.36 209.68h21.93v-99.75l1.9-1.9V211.6H79.4z" fill="#aaa"/>
  <path d="M150.92 72.43H55.88c-11.9 1.46-20.2 6.7-23.18 17.43v140.48c.13 5.04 11.13 16.22 24.12 16.22h46.52v19.83H32.7v36.7h97.7c5.62-.8 9.7-3.1 13.55-5.7l-1.35-1.4c-3.8 2.9-8.3 4.7-13.4 5.3H34.7V268h70.65v-23.32h-48.8c-10.18 0-21.84-9.48-21.84-15.55V90.8c2.2-12.76 15.2-16.26 22.8-16.5h92.2z" fill="#b7b7b7"/>
  <path d="M240.57 114.06h-12.94v22.68h12.94zm29.45 193.6c-6.43 0-12.63-2.03-18.6-6.1-6.67-4.8-10.85-10.32-10.85-16.56V182.44h-12.94v88.67h-56.88V68.4h99.27c15.8 0 28.27 9.58 28.27 23.02v48.93c0 16.33-3.9 16.76-13.8 18.74 2.8-5.5 13.8-3.2 13.8 19.4v83.8h71v45.3zm255.1 245.04h-13.8v91.4h13.8zM582 666.76c0 10.47-16.27 22.67-28.27 22.67h-71c-13.65 0-28.27-9.97-28.27-22.67V530.03c0-9.93 14.15-23.03 28.27-23.03h71c12.17 0 28.27 11.75 28.27 23.03z" style="-inkscape-font-specification:Pricedown" font-family="Pricedown" font-size="563.84" letter-spacing="0" word-spacing="0" fill="#fff"/>
  <path d="M222.77 140.64h21.94v-30.08l2-1.9v33.9h-25.8z" fill="#aaa"/>
  <path d="M220.13 264.96l2.25 2.24H174.4V73.07h97.38c4.08.05 8.38 1.7 13.38 4.93l-1.28 1.52c-3.3-2.62-7.44-4.17-12.92-4.6h-94.3v190.04z" fill="#aaa"/>
  <path d="M249.93 291.88v3.3c-2.52-2.64-4.8-5.45-5.28-9.42v-107.1l2.23-2.23V286.1c.4 1.73.67 3.44 3.05 5.78z" fill="#b6b6b7"/>
  <path d="M381.22 182.44h-13.8v23.03h13.8zm-42.4 68.37c-13.7 0-28.27-11.4-28.27-22.6v-68.8c0-15.5 21.08-22.6 28.27-22.6h42.4v-22.7h-13.8v11.2h-56.87V91.4c0-11.5 16.57-23.03 28.27-23.03h71c14.2 0 28.27 12.45 28.27 23.02v159.4z" style="-inkscape-font-specification:Pricedown" fill="#fff" font-family="Pricedown" font-size="563.84" letter-spacing="0" word-spacing="0"/>
  <path d="M363.6 209.44h21.94V178.2l1.9-1.92v35.06H361.7z" fill="#aaa"/>
  <path style="text-indent:0;text-align:start;line-height:normal;text-transform:none;block-progression:tb;-inkscape-font-specification:Sans" d="M385.62 108.35v32.58H336.3l-.12.02c-10.48 2.64-17.86 8.23-20.75 17.5l-.06.12v69.53l.02.02c.2 5.87 4.4 10.37 9 13.37 2.2 1.5 4.6 2.6 6.7 3.4 2.1.7 3.8 1.2 5.1 1.2h97.2l-2.1-1.9h-95.2c-.8 0-2.5-.4-4.5-1.1-2-.7-4.2-1.9-6.3-3.3-4.3-2.8-8-6.9-8.2-11.9v-69.1c2.7-8.5 9.3-13.6 19.2-16.1h51v-34.4l-1.9 2.1zm-49.82-35.3c-3.8-.05-8.62 2.05-12.7 5.32-4.08 3.26-7.42 7.76-7.63 12.8v30.03h47.97v-10.93l-1.87-1.84v10.9h-44.22v-28.1c.2-4.23 3.14-8.36 6.93-11.4 3.8-3.05 8.46-4.93 11.5-4.9h75.62c6.05 0 9.42 1.94 12.84 4.16l1-1.6c-3.46-2.3-7.38-4.5-13.85-4.5h-75.6z" color="#000" fill="#aaa" overflow="visible" font-family="Sans"/>
  <path d="M521.8 250.8V114.07h-13.05V250.8h-56.88V68.38h56.88v11.5c9.42-7.67 22.4-11.5 41.25-11.5 6.44 0 12.65 2.03 18.62 6.1 6.43 4.57 10.8 10.2 10.8 16.92v159.4z" style="-inkscape-font-specification:Pricedown" font-family="Pricedown" font-size="563.84" letter-spacing="0" word-spacing="0" fill="#fff"/>
  <path style="text-indent:0;text-align:start;line-height:normal;text-transform:none;block-progression:tb;-inkscape-font-specification:Sans" d="M526 110.5v135.44h47.23l-1.77-1.87h-43.6V107.5z" color="#000" fill="#aaa" overflow="visible" font-family="Sans"/>
  <path style="text-indent:0;text-align:start;line-height:normal;text-transform:none;block-progression:tb;-inkscape-font-specification:Sans" d="M456 72.82v173.05h47.27l-1.73-1.88H457.9V74.7h44v19.26l1.6-1.74c11.97-12.76 27.3-18 45.62-17.5h.02c7.5.04 11.1 1.55 15.46 4.45l1.04-1.57c-4.52-3-8.74-4.7-16.48-4.76h-.02c-17.92-.48-33.27 4.58-45.38 16.55V72.8h-46.8z" color="#000" fill="#aaa" overflow="visible" font-family="Sans"/>
  <path d="M661.95 114.06h-12.98v91.4h12.98zm-41.6 136.75c-18.35 0-27.5-13.6-28.26-22.6V91.4c1-11.27 11.4-23.03 28.2-23.03h42.4v-45.7h56.8V250.8z" style="-inkscape-font-specification:Pricedown" fill="#fff" font-family="Pricedown" font-size="563.84" letter-spacing="0" word-spacing="0"/>
  <path style="text-indent:0;text-align:start;line-height:normal;text-transform:none;block-progression:tb;-inkscape-font-specification:Sans" d="M666.24 110.77v97.62l1.88 2.9V107.5z" color="#000" fill="#aaa" overflow="visible" font-family="Sans"/>
  <path style="text-indent:0;text-align:start;line-height:normal;text-transform:none;block-progression:tb;-inkscape-font-specification:Sans" d="M667.32 27.13V72.4h-49.2c-5.27 1.08-10.2 2.72-14.1 5.67-3.88 2.95-6.67 7.22-7.54 13.22v134.9c-.12 3.9 1.12 8.1 4.55 11.6 3.43 3.5 9 6.5 17.4 8.3h96.65l-2.03-1.9h-94.3c-8.13-1.8-13.3-4.6-16.38-7.8-3.1-3.2-4.14-6.8-4.02-10.3V91.4c.82-5.5 3.3-9.2 6.82-11.9 3.52-2.7 8.16-4.3 13.25-5.3h50.78V29h43.85l2.66-1.87h-47.4z" color="#000" fill="#aaa" overflow="visible" font-family="Sans"/>
  <path d="M298.6 467.62c0 12.7-11.85 20.67-28.27 22.67h-71c-12.62 0-28.27-10.1-28.27-22.7V364.7h-21.53v-45.35h21.53V285.2h56.88v34.15h70.66v45.75h-70.66v79.84h14.13v-68.72h56.53z" style="-inkscape-font-specification:Pricedown" font-family="Pricedown" font-size="563.84" letter-spacing="0" word-spacing="0" fill="#fff"/>
  <path style="text-indent:0;text-align:start;line-height:normal;text-transform:none;block-progression:tb;-inkscape-font-specification:Sans" d="M174.7 289.18v34.92h-21.05v36.58h21.7v105.74c.17 5.84 2.3 10.55 6.4 13.84 4.1 3.3 10.04 5.2 17.86 5.74h71.3c7.9-.47 11.4-2.7 14.3-4.92l-1.1-1.5c-2.8 2.15-5.7 4.1-13.2 4.55h-71.1c-7.5-.55-13.1-2.37-16.7-5.3-3.6-2.96-5.5-7.03-5.7-12.45V358.8h-21.8V326h21.1v-34.94h44.1l2-1.88h-48z" color="#000" fill="#b7b7b7" overflow="visible" font-family="Sans"/>
  <path style="text-indent:0;text-align:start;line-height:normal;text-transform:none;block-progression:tb;-inkscape-font-specification:Sans" d="M245.94 380.83V449h-21.8l-2.2 1.88h25.87V382.7h43.7l2.1-1.87h-46.7z" color="#000" fill="#b7b7b7" overflow="visible" font-family="Sans"/>
  <path d="M222.95 323.98h72.07l-1.9 1.9H221.3zm0 36.92h72.07l-1.9-1.9H221.3z" fill="#aaa"/>
  <path d="M382.72 489.93V353.98h-13.8v135.95h-56.87V264.08H366v43.4h45.32c18.84 0 28.26 7.68 28.26 23.03V490z" style="-inkscape-font-specification:Pricedown" fill="#fff" font-family="Pricedown" font-size="563.84" letter-spacing="0" word-spacing="0"/>
  <path style="text-indent:0;text-align:start;line-height:normal;text-transform:none;block-progression:tb;-inkscape-font-specification:Sans" d="M363.37 347.74l2.2 1.87h21.1v136.5h47.45l-2.18-1.8h-43.4V347.8h-.92zM316.3 307.7v178.07h48.25l-1.92-1.88h-44.45V307.7zm48.57 4.83l-2.1 1.87h49.6c6.36.24 9.63 2.43 13.3 4.7l1-1.58c-3.65-2.26-7.47-4.75-14.26-5h-47.5z" color="#000" fill="#aaa" overflow="visible" font-family="Sans"/>
  <path d="M292.74 265.93h72.07l-1.9 1.9h-71.8z" fill="#aaa"/>
  <path d="M522.77 353.18h-13.7v22.68h13.7zm56.43 114.08c0 11.68-12 22.67-28.05 22.67h-70.47c-15.26 0-28.05-9.85-28.05-22.67V330.5c0-10.8 12.84-23.02 28.05-23.02h70.47c15.03 0 28.05 12.28 28.05 23.03v91.1h-70.12v23.1h13.7v-11.5h56.42z" style="-inkscape-font-specification:Pricedown" font-family="Pricedown" font-size="561.71" letter-spacing="0" word-spacing="0" fill="#fff"/>
  <path d="M502.78 417.73h72.06l-1.9-1.9h-71.8z" fill="#aaa"/>
  <path style="text-indent:0;text-align:start;line-height:normal;text-transform:none;block-progression:tb;-inkscape-font-specification:Sans" d="M503.2 347.82l1.68 1.87h21.84v30.5h-21.84l-1.67 1.9h25.4v-34.3h-.9z" color="#000" fill="#aaa" overflow="visible" font-family="Sans"/>
  <path style="text-indent:0;text-align:start;line-height:normal;text-transform:none;block-progression:tb;-inkscape-font-specification:Sans" d="M482.05 312.04c-7.02.44-12.77 2-17.12 4.88-4.34 2.9-7.2 7.14-8.37 12.73l-.02.1v135.4c.9 8.37 4.24 13.2 8.7 16 4.43 2.83 9.86 3.7 15.06 4.75l.1.02h69.52c5.35-.1 10.64-1.25 15.7-4.3l-.98-1.6c-4.74 2.84-9.65 3.94-14.74 4.03h-69.33c-5.2-1.04-10.37-1.97-14.35-4.5-4-2.53-6.94-6.62-7.8-14.6v-135c1.08-5.14 3.6-8.85 7.55-11.47 3.95-2.62 9.36-4.13 16.14-4.57h72c3.9.6 7.7 1.6 11.9 5.1l1.2-1.4c-4.6-3.7-8.9-4.9-13-5.4h-72.1z" color="#000" fill="#aaa" overflow="visible" font-family="Sans"/>
  <path style="text-indent:0;text-align:start;line-height:normal;text-transform:none;block-progression:tb;-inkscape-font-specification:Sans" d="M526.85 437.7v11.32h-22.1l-1.9 1.88h25.87v-11.32h43.6l1.97-1.87h-46.5z" color="#000" fill="#aaa" overflow="visible" font-family="Sans"/>
  <path d="M650.68 410.04v79.9H593.8V330.5c0-12.15 16.4-23.02 28.26-23.02h99.44v45.7h-70.82v11.16h70.82v45.7z" style="-inkscape-font-specification:Pricedown" font-family="Pricedown" font-size="563.84" letter-spacing="0" word-spacing="0" fill="#fff"/>
  <path d="M645.58 368.85h72.06l-1.9 1.9h-71.82zm0-19.25h72.06l-1.9-1.9h-71.82zm0 56.77h72.06l-1.9-1.9h-71.82z" fill="#aaa"/>
  <path style="text-indent:0;text-align:start;line-height:normal;text-transform:none;block-progression:tb;-inkscape-font-specification:Sans" d="M622.9 312.16c-6.16 0-12.15 1.67-16.78 4.88-4.62 3.2-7.88 8-8.37 14.1v154.8h48l-1.8-1.88H599.6V331.3c.47-5.53 3.3-9.8 7.58-12.74 4.25-2.95 9.9-4.53 15.7-4.53h92.63l2.2-1.87z" color="#000" fill="#aaa" overflow="visible" font-family="Sans"/>
  <path style="-inkscape-font-specification:Pricedown" d="M870 467.62c0 12.7-11.85 20.67-28.27 22.67h-71c-12.62 0-28.27-10.1-28.27-22.7V364.7h-13.33v-45.35h13.33V301.3h56.88v18.05H870v45.75h-70.66v79.84h14.13v-68.72H870z" font-family="Pricedown" font-size="563.84" letter-spacing="0" word-spacing="0" fill="#fff"/>
  <path d="M747.3 305.7v18.4h-13.65v36.58h13.1v105.74c.17 5.84 2.3 10.55 6.4 13.84 4.1 3.3 10.04 5.2 17.86 5.74h71.3c7.9-.47 11.4-2.7 14.3-4.92l-1.1-1.5c-2.8 2.15-5.7 4.1-13.2 4.55h-71.1c-7.5-.55-13.1-2.37-16.7-5.3-3.6-2.96-5.5-7.03-5.7-12.45V358.8h-13.2V326h13.7v-18.42h44.1l2-1.87h-48z" style="text-indent:0;text-align:start;line-height:normal;text-transform:none;block-progression:tb;-inkscape-font-specification:Sans" color="#000" fill="#b7b7b7" overflow="visible" font-family="Sans"/>
  <path d="M817.34 380.83V449h-21.8l-2.2 1.88h25.87V382.7h43.7l2.1-1.87h-46.7z" style="text-indent:0;text-align:start;line-height:normal;text-transform:none;block-progression:tb;-inkscape-font-specification:Sans" color="#000" fill="#b7b7b7" overflow="visible" font-family="Sans"/>
  <path d="M794.35 323.98h72.07l-1.9 1.9H792.7zm0 36.92h72.07l-1.9-1.9H792.7z" fill="#aaa"/>
  <path style="-inkscape-font-specification:Pricedown" d="M94.12 621h-13.8v23.04h13.8zm-42.4 68.38c-13.7 0-28.27-11.5-28.27-22.66v-68.74c0-15.58 21.08-22.67 28.27-22.67h42.4v-22.6h-13.8v11.2H23.46V530c0-11.5 16.57-23.03 28.27-23.03h71c14.2 0 28.27 12.46 28.27 23.03v159.4z" fill="#fff" font-family="Pricedown" font-size="563.84" letter-spacing="0" word-spacing="0"/>
  <path d="M76.5 648h21.94v-31.23l1.9-1.9v35.05H74.6z" fill="#aaa"/>
  <path d="M98.53 546.92v32.58H49.2l-.12.02c-10.48 2.64-17.86 8.24-20.75 17.5l-.06.13v69.53l.02.02c.2 5.86 4.4 10.37 9 13.37 2.2 1.5 4.6 2.64 6.7 3.4 2.1.8 3.8 1.2 5.1 1.2h97.2l-2.1-1.87H49.1c-.8 0-2.5-.35-4.45-1.07-1.95-.73-4.2-1.83-6.32-3.24-4.25-2.9-7.93-6.9-8.18-11.9v-69.2c2.7-8.5 9.3-13.6 19.26-16.1h51v-34.4l-1.8 2.1zM48.7 511.6c-3.8-.02-8.62 2.08-12.7 5.34s-7.42 7.77-7.63 12.8v30.05h47.97v-11l-1.88-1.8v10.9H30.24v-28.1c.2-4.3 3.14-8.4 6.93-11.4 3.8-3.1 8.46-5 11.5-4.9h75.63c6.05 0 9.43 1.9 12.84 4.1l1-1.6c-3.46-2.3-7.38-4.5-13.85-4.5H48.7z" style="text-indent:0;text-align:start;line-height:normal;text-transform:none;block-progression:tb;-inkscape-font-specification:Sans" color="#000" fill="#aaa" overflow="visible" font-family="Sans"/>
  <path d="M291.62 666.77c0 11.06-11.55 22.67-28.27 22.67h-71c-13.95 0-28.27-11.62-28.27-22.67V507h56.88v137.1h13.8V507h56.86z" style="-inkscape-font-specification:Pricedown" font-family="Pricedown" font-size="563.84" letter-spacing="0" word-spacing="0" fill="#fff"/>
  <path style="text-indent:0;text-align:start;line-height:normal;text-transform:none;block-progression:tb;-inkscape-font-specification:Sans" d="M238.76 512.12v135.96h-21.54l-1.8 1.87h25.2V514h44.02l1.97-1.88h-46.9z" color="#000" fill="#aaa" overflow="visible" font-family="Sans"/>
  <path style="text-indent:0;text-align:start;line-height:normal;text-transform:none;block-progression:tb;-inkscape-font-specification:Sans" d="M168.74 511.86V668.6l.04.15c1.78 5.54 4.94 9.46 9.04 12.08 4.1 2.62 9.1 3.95 14.62 4.5h73.82c4.66-.5 8.37-2.32 11.6-4.6l-1.06-1.52c-3.06 2.2-6.4 3.8-10.64 4.3h-73.63c-5.3-.5-9.97-1.8-13.7-4.2-3.73-2.4-6.55-5.8-8.22-11V513.8h44.1l1.9-1.88h-46.9z" color="#000" fill="#aaa" overflow="visible" font-family="Sans"/>
  <path d="M442.1 667.15c0 12.7-11.83 20.67-28.26 22.67h-71c-12.62 0-28.26-10.07-28.26-22.67V564.23h-13.34v-45.35h13.34v-18.04h56.87v18.04h70.66v45.75h-70.6v79.84h14.2v-68.72h56.6z" style="-inkscape-font-specification:Pricedown" font-family="Pricedown" font-size="563.84" letter-spacing="0" word-spacing="0" fill="#fff"/>
  <path style="text-indent:0;text-align:start;line-height:normal;text-transform:none;block-progression:tb;-inkscape-font-specification:Sans" d="M319.42 505.24v18.4h-13.66v36.57h13.1V666c.18 5.84 2.3 10.55 6.4 13.84 4.1 3.3 10.05 5.18 17.87 5.74h71.28c7.9-.47 11.4-2.7 14.3-4.92l-1.1-1.5c-2.8 2.17-5.7 4.1-13.2 4.57h-71.2c-7.5-.55-13.1-2.37-16.7-5.3-3.6-2.96-5.5-7.04-5.7-12.45v-107.6h-13.1V525.5h13.7v-18.4h44.1l2-1.86h-48z" color="#000" fill="#b7b7b7" overflow="visible" font-family="Sans"/>
  <path style="text-indent:0;text-align:start;line-height:normal;text-transform:none;block-progression:tb;-inkscape-font-specification:Sans" d="M389.45 580.36v68.17h-21.8l-2.2 1.87h25.87v-68.17h43.64l2.1-1.87h-46.68z" color="#000" fill="#b7b7b7" overflow="visible" font-family="Sans"/>
  <path d="M366.47 523.5h72.06l-1.9 1.9H364.8zm0 36.93h72.06l-1.9-1.9H364.8z" fill="#aaa"/>
  <path d="M505.68 547.1l1.67 1.86h21.83v99.28h-21.83l-1.67 1.87h25.37v-103h-.93z" style="text-indent:0;text-align:start;line-height:normal;text-transform:none;block-progression:tb;-inkscape-font-specification:Sans" color="#000" fill="#aaa" overflow="visible" font-family="Sans"/>
  <path style="text-indent:0;text-align:start;line-height:normal;text-transform:none;block-progression:tb;-inkscape-font-specification:Sans" d="M480.63 511.86c-5.78.9-10.65 2.76-14.37 5.76-3.7 3-6.22 7.2-7.28 12.6l-.02.1v137.9l.02.1c1.5 6.22 4.83 10.02 8.98 12.37 4.15 2.3 9.08 3.3 13.96 4.2h70.4V683h-70.17c-4.82-.9-9.5-1.86-13.25-4-3.76-2.1-6.65-5.35-8.06-11.05V530.5c1-5 3.25-8.7 6.6-11.43 3.37-2.72 7.88-4.45 13.38-5.33h54.76v-1.88h-54.94z" color="#000" fill="#aaa" overflow="visible" font-family="Sans"/>
  <path d="M552.13 690.1c-9.47-22.02 15.33-51.96 29.36-64v-62.23c-12.2-13.24-20-15.2-30.7-16.22h-17.5v-44.7h84.1l-8.4 200.3z"/>
  <path d="M229.97 876.2v3c21.93 7.6 44 17.36 69.27 70.5l130.43 246.08h2.8l118.65-256.92c7.43-12.26 27.5-60.43 70.07-63.53H493.3c8.64 4.48 46.43 14.97 46.84 46.73-.03 7.84-1.67 15.68-4.53 23.53L469 1096.1l-82.5-165.87c-9.43-40.68 10.8-49.74 35.46-54.1z" fill="url(#b)" transform="translate(339.313 -348.72)"/>
  <path d="M789.2 812.2c-16.66-29-31.44-80.5-14.87-132.4m8.34 145.85c-17.3-31.75-36.7-82.06-14.2-145.44m7.77 158.7c-26.56-46-35.78-99.6-15.22-157.9m3.38 159.3c8.93-8.3 17.64-18.7 26.05-31.8m-31.8 21.3c17.62-20.9 35.26-39.5 48.37-88.9m-53.52 77.6c22.23-25.2 40.02-55 46.8-89m-52.67 78.1c26.17-27.3 42.9-64.1 47.04-88.7m-53.2 78.1c20.45-23.3 40.77-50.6 48.08-88.7m-53.33 78.3c20.75-22.1 39.8-50.3 49.5-86.8m-54.8 76.6c22.06-23.4 41.47-50.9 50.28-85.3m-55.4 75.5c34.72-34.6 42.42-59.2 51.4-83.1m-56.05 73.8c24.4-22.7 40.9-48.1 50.33-75.8M715.73 748c16.53-16.6 33.72-30.76 50.26-66.5M711.6 739c18.43-16.97 37.64-33.24 47.47-57.72m-52.12 49.42c16.75-14.04 33.54-28.83 45.92-49.42m-50.35 40.92c12.26-10.04 20.73-12.5 42.72-40.44m-47.26 32c13.92-6.6 26.6-19.3 38.9-31.3M693.7 705.9c13.44-5.1 22.65-14.74 32.46-22.95m-36.48 15.63c9.45-3.74 17.2-9.84 24.56-15.15m-29.27 7.47c2.05-.38 7.16-2.74 10.66-4.85m53.44 125.42c-5.93-27.03-19.88-64.34 6.52-130.92m-25.5 95.1c1.9-28.07-1.4-51.8 18.3-94.5m-28.1 75.52c3.8-23.68 6.1-47.32 21.2-75.23m-8.3.6c-10.1 18.95-16.1 39.22-21.3 58.2m13.5-57.6c-9.6 15.1-15.6 30.2-20.2 45.3M717 683.8c-7.52 10.47-13.2 21.94-17.4 32.96m7.4-32.06c-4.63 6.52-9.12 15-12.65 22.64m2.45-20.74c-2.57 3.06-5.54 7.4-7.56 10.45m105.28 102.5c-11.98-27.87-24.6-55.83-16.16-114.02m21.82 101.2c-14.93-29.84-18.15-62.5-17.8-93.46m23.54 81.27c-9.08-19.24-16.34-41.2-16.48-66.25m21.96 53.8c-5.13-9.7-10.28-22.1-10.85-31.9m6.8 40.7c4.15-11.9 7.3-24.8 7.64-41.1m8.6 6.2c.8-5.9 1.8-11.7.2-24.9m7.8 7.4c.1-6.5-.9-13.1-2.7-19.6m8.8 6.8c-1.1-4.5-1.9-9.8-4.8-15.5m9.4 5.2c-1.1-3.1-2.7-6.5-3.7-8.3m-21 64.2c-3-4.3-5-8.1-6.7-11.7m11 1.4c-2.6-3.7-4.8-7.9-6.7-12.2m10.7.9c-1.9-3.2-4.6-6.9-5.9-10.7m9.9 1.9c-2.6-3.3-4.4-7-5.8-11m9.8 2.1c-2.4-2-4.7-5.1-6.5-10.3m10 2.4c-2.2-2.9-4.3-5.8-6.5-10.5m10 2.8c-2.5-2.9-4.8-6.3-6.7-9.8M569.4 527c1.66 2.23 3.47 4.6 6.6 7.8m7.8-8.5c20.37 24.42 45.2 47.6 95.35 63.6m-14.87 3.64l-40.95-18m26.1 22.4l-16.6-6.3m60.7-4.85c-35.5-12.6-68.9-29-94.4-60.5m34.17 65.8c27.2-8.6 48.53-8.7 68.77-7.3m-73.6-1c14.3-3.6 37.9-13.2 97.03-2.5m-102.1-6.9c28.74-5.2 59.6-8.6 101.7 2m-107-11c31.36-6.5 64.74-8.6 106.06 5.8M610.12 556c37.57-7.9 75.96-5.8 114 10.42m-122.8-19c31.88-6.44 65-11.36 122.45 12.7m-137.8-21c38.6-6.7 76.2-15 138.73 16.35M570.9 531.7c5-1.98 11.1-3.4 17.08-4.9m26.33-.47c23.9 27.94 55 48.15 96.4 57.54M629 526.33c28.33 33 62.95 46.4 97.73 55.55m-83.6-54.83c20.26 21.5 47.4 39.54 82.7 50.5m-70-50.74c21.83 22.7 45.9 36.4 69.26 45.6m-56.4-45.6c17.4 16.6 36 30.6 55.4 39.7m-43-39.7c12 13.6 26.8 24.7 42.8 33.3m-32.4-33.2c10.7 12.2 21.9 20 33.2 27.8m-22.4-27.8c10 11.4 16.5 16.4 24.8 22.7m-15.8-22.3c5.5 6 11.9 12.3 18.3 18.2m-8.9-18.3c3.6 5.4 8 9.6 12 13.5m-8.8-13.7c4.3 2.9 8.6 7.4 12.4 11.2m-8-11.1c2.4 3.6 5.8 7.1 8.7 10.2m-4.2-10.3l8.1 8.3m-4.7-8.2c1.6 1.6 3.6 4.1 5.7 7.7m1.7-7.8c1.4 2.8 2.8 4.7 4.1 6.6M742 527c1.56 1.7 3.06 3.6 4.14 5.8m2.4-6.1c1.34 1.84 2.1 3.2 2.95 4.6m-.8-4.9c.3 2.5 1 3.63 1.7 4.64m2.5-4.63c.1 1.3.8 2.4 1.9 3.2m-44.4-2.4c6.7 4.3 13.5 8.6 19.7 14.4m-37.5-14.9c6.4 2.3 11.7 4.1 35 19m-3 4.4c-17.2-10.3-35.8-18.1-54-23.4M956 526c-.63 1.06-3.2 2.7-2.3 3.2m-9.8-3.4L932.3 538m-1.8-11.9c-15.1 16.2-33.6 28-52.3 38.5m40.4-38.9c-11.7 11-22.4 22.9-42.4 33.9m30.8-33.45c-9.16 10-20.25 20.55-33.56 28.5m22.2-28.5c-6.95 6.8-7 8.55-25.6 23.75m19.07-23.8c-7.4 4.7-15.5 12.15-23.5 20.5m12.6-20.6c-5.7 5.7-11.4 11.47-16.6 16.67m7.2-16.5c-4.4 4.24-7.7 8.5-11.1 12.7m3.4-12.9c-2.4 3.9-5.6 7.7-8 10.6m.9-10.6c-2.2 4.16-3.5 6.16-4.8 8.43m-1.9-8.4l-3.6 5.6m-3.4-5.7l-1.6 4.3m-3.5-4.4l-.6 2.4m84.1 20.1c-12.4 8.2-26.1 16.16-39.6 21.77m26.5-4.85c-8.9 4.15-18.4 8.4-26.3 10.06m20.9-.3c-6.4 2.15-13.6 4.25-21.5 5.4m16.4 3c-5.5.5-11.9 2.06-17.4 3.63m14.2 2.9c-5.3.7-10.7 1.3-15.5 2m11.8 4.4c-4.8.2-9.1.5-13 .7m57-59c-14.3 2.2-29 4.6-57.9 17.5m-2.8-4.7c38.9-18.5 52.2-21.3 71.2-24.2m-75.2 20.1c13.7-7.4 28.4-15.8 39-20.7m-44 17.3c9-5.5 18.3-11.7 26.3-17.2M859 540c5.7-4.27 11.26-9.3 15.93-14.1m-21.3 10.6c4.5-3 8.6-7.46 11.54-10.44m-15.6 8.07c2.5-1.9 5.3-5.18 6.7-8.1m-11.8 5.83c1.47-1.3 3.17-4 4.1-5.7m-9.35 4.1c1.5-1.37 1.95-3.1 2.4-4.4M878.5 566c16.44-6.22 24.9-7.3 31.6-7.36m-32.97 2.58c17.94-7.5 31.9-11.17 41.47-12.28m-39.37 22.3c10.02-3.1 18.16-4.1 25.7-5.2M879 576.82c8.5-2.22 16.36-3.05 21.25-3.2m-21.9 8.96c5.86-.95 13.1-1.4 17.93-1.8m-18.74 7.1c4.16-.1 9.52-.35 15.2-.95m-16.66 5.44c3.97.56 9.2.8 13.68.33m-14.6 4.65c3.16.55 7.04 1.14 12.22.7" fill="none" stroke="#204a00" stroke-width="1.25"/>
  <path d="M544.13 513.2h227.6v23.57c-46.15 1.63-40.4 31.67-34.72 47.44l63.9 129 53.4-119c21.5-52.1-16.1-55.7-39-57.3v-23.6h158.4v23c-20.7 2.1-41 .5-65.7 42.5-41.8 84.8-86.4 185.7-129.6 278.5h-27L609 587c-18.37-33.68-34.9-51.25-64.8-50.23z" fill="none" stroke="#fff" stroke-width="10.62"/>
  <path d="M612.47 614.6c24.48-18.66 85.7-32.78 129.47-33.52 36.44-4.14 72.5-1.4 108.18 8.46 17.96 4.87 35.87 9.76 49.28 16.9l22.45 58.04-62.4 27.7c-15.72-3.92-32.9-6.36-50.16-8.75-10.6 0-6.3-1.17-18.4-1.17-44.1-.4-89.2 2.2-132.5 11.08z"/>
  <path d="M569.12 527.38h191.75c-5.38 2.6-48.44 2.02-34.83 54.55-33.52 2.85-63.93 9.76-87.5 19.13-20.2-44.78-43.5-63.53-69.42-70.5l-2.48 1.07 32.12 19.6 33.65 54.3 28.3-9.2 68.7-12.04-3.1-21.8 4-14.5 11.7-11.4 20.7-7.1-.2-6.4-168.2-.4zm263.6-.68H960.3c-20.98 1.88-47.17 12.68-74.66 73.8-3.53-1.3-7.05-2.57-10.58-3.84 4.2-13.64 19.67-47.17-40.93-69.16l-2.9.2 16.5 8.35 17.8 12.86 6.25 33 .22 15.5 15.4 6.5 8.78-19 12.96-21.3 14.84-17.8 15.38-10 23.4-7 .12-5.5-132.74.5z"/>
  <path d="M763.25 585.83c-43.25.98-85.9 5.98-126.88 22.1-44.1 20.1-14.16 36.3-17.26 67.05 27-151.67 139.3-22.3.6-5.04l-37.2 64.82c11.5-12.1 39.2-56.58 175.4-58.6 52-.44 87.4 6.65 120.2 15 9.5 3.84 70 21.52 74.2 67.96-.2 9.23-3.4 12.3-7.6 13.3 3.8-2.03 5.2-5.6 6.3-9.27-2.2 3.58-4.8 4.1-7.4 4.7 4.6-3.28 5.2-5.78 6.8-8.5-1.6 2.2-3.5 3.3-5.9 3.03 3.4-2.1 5.2-4.78 6-7.8-.9 2.16-2.8 3.3-5.6 3.63 2.2-2.1 4.6-4.1 5-7.3-2.5 2.4-4.6 2.7-6.6 2.8 1-1.5 4.2-2.3 5.4-5.4-1.3.1-2.9.2-3.9-.3 1.9-1.1 2.2-2.2 2.2-3.4-.3-.7-2-.6-3.2-.8.8-.4 1.3-1 1.6-1.7-3.5-4.3-7.1-7.3-10.9-8.6-1.3.1-2.1.4-2.3.9 3.2.6 4.8 1.6 6.5 2.5-1.6.4-2.9 1.1-5.4.6.5 1.1 1 2.1 2 2.5 1.5 0 3.1 0 6.2.8-1.1.8-1.9 1.7-5.4 1.6-.8 1-.2 1.2-.2 1.7 1.3.4 3.6.6 6.1.7-2.1 2.4-5.8 1-5.1 4.2 1.8.2 3.7.1 4.9 1.1-.8.6-1.6 1.1-4.5 1.9-.8.7-.8 1.3-.8 2 2 0 3.5.4 4 1.38-.7.5-1.8.93-4.5 1-.8.5-.8 1-.9 1.5 1 .7 3.1 1.3 5.5 1.84-2.15.9-5.2 1.15-9.34.5 2.2-2.7 2.98-5.74 3-8.93-1.2-20.6-29.4-25.4-47.6-20.95 13.6-4.3 27.4-5.9 41.7 5.2-5.6-11.1-21.6-12.1-40.6-10.2 14.5-4.8 27.5-3.5 38.9 4-8.6-9.7-22.9-11.3-41-7.4 16.1-6.4 29.5-5.6 40.3 2.95-6.4-8.1-18.22-11.4-38.04-7.62 13.7-6.8 26.25-3.7 38.4 3.2-10.04-8.3-22.54-11.4-38.5-7.3l3.55-2.3c-5.5 1.67-10.96 3.37-15.57 8.46v1c-1.8 1.2-2.7 2.4-4.1 3.6 1.25-.3 2.6-.7 3.1-.3-1.5 1.1-2.8 2.3-4.7 3.17-.85 1.5-1.8 2.44-1.95 3.8 3.6-2.1 5.9-3.1 7.3-3.4-2.8 2.03-5.53 4.1-9 6-1.1 1.63-1.64 2.74-1.84 4.23 9.98-6.8 12.1-7.47 13-7.16-4.9 3.5-9.8 7.3-14.6 10-2.07 2.1-2.65 4.6-3.9 6.8 14.2-11.9 18.6-13.7 21.3-13.9-6.9 4.98-13.8 9.28-21.1 15.9-3 2.5-5.7 5.7-9.7 6-2.1.3-4.2 0-6.3-.5 1.8.98 4 1.68 6.84 2 4.64-.9 9.36-3.7 14.14-7.8 11.5-8.85 22.8-17.94 39.65-17.23 14.9.7 26.7 6.56 26.5 15.6-.25-1.5-1.05-2-1.93-2.43-.47-1.8-1.5-2.9-4.1-2.3-1.9-.8-3.3-2-4.3-3.4h-1.46c1.2 1.8 1.4 3.4 7.15 6.5 1.5.26 2.12-.2 3.1-.3-.7.7-1.05 1.7-3.1 1.6-4.16-1-6.78-4.57-9.27-8.3l-1.8-.8c2.9 4.9 5.7 9.9 12.2 12 1.45-.1 2.6-.8 3.6-1.9-.7 1.8-2.1 3-4.46 3.2-6.06-2.3-9.4-8.4-13.1-13.4-2.6-.4-5.66-1.1-6.5-.2-1.4 8.4-2.7 7.4-2.8 11.4 3.6 12.7 10.9 26.2 37.1 28.9 11.54.2 14.6-8.1 14.25-17.37.4-22.6-12-32.1-22-44.1 9.6 7.5 18 16.5 21.9 31.06-1-10.6-7.5-21.6-19.4-33.1 7.8 4.8 12.7 12.2 17.1 20.1-4.14-11.2-12.5-19.4-20.9-27.6 9 5.7 15.8 13.2 20.8 22.3-3.2-10.24-11.24-18.8-20.1-27.1 7.6 5.8 15.23 11.26 20.9 23.7-2.8-7.1-6.2-14.3-14.05-22.4 5.67 3.9 10.5 9.7 14.46 17.3-2.5-8.46-8.3-15.7-14.8-22.7 7.75 5.22 11.7 12.4 15.6 19.6-2.8-8.9-7.9-17.55-17.3-25.8 7.8 5.32 13.8 11.82 17 20-2.43-9.2-9.7-17.35-17.5-25.4 9.2 6.2 15.4 14.3 18.9 24.3-.2-8.4-9.4-19.3-21.8-31.1 10.45 7.17 18.16 15.84 22.9 26.15-3.4-9.6-9.33-18.62-18.4-27.1 8.8 6.4 15.2 14.2 19.1 23.5-2.5-8.7-7.8-16.7-14.54-24.2 6.7 5.6 12.35 12.4 15.63 21.7-1.5-9.93-8.2-18.2-15.1-26.45 5.95 6.32 12.5 11.8 15.7 22-1-9.38-8.15-18.2-16.3-27 9.03 6.3 14.04 15.7 17.92 26-.28-8-5.65-18-17.16-30.3 11.96 9.7 16.03 19.2 18.9 28.6-1.54-13.8-10.8-24.7-20.5-35.4 8.1 6.95 16.6 12.8 21.4 31.7.24-13.8-11-25.4-22.6-36.9 9.4 6.9 18.5 14.8 24.2 33.3-1.35-10.6-9.1-22.86-20.5-35.5 11.1 9.2 17.2 20.6 21.12 31.84-1.5-11.86-10.1-23.7-20.4-35.5 12.1 10.95 20.8 23.1 22.3 37.9.7-26.5-32.1-53.66-67.2-71.5-34.6-18-92.3-25.6-136.05-25.9zm147.7 154.4c2.7.14 8.5 10.13 14.67 12.92 1.74.63 3.5-1.34 5.23-3.2-1.14 1.85-.63 4.05-5.64 5.02-6.6-3.7-11.3-12.37-14.7-14.62.2-.1.3-.13.5-.12zm-3.07 1.87c4.2-.16 8.98 12.8 17.64 14.9 5.3-.82 6.4-4.2 6.62-8.12.4 5.06-.1 9.68-5.88 11.65 5.06 1.87 10.12 2.03 15.17 2.56-6.68 1-11.78 4.1-27.44-7.1 7.9 10.5 17 9.6 25.7 12.3-10.4 2.2-20.3-1.2-29.8-12.3 5.8 8.7 15 15.2 29.9 17.1-17.3 6.4-45.3-25.1-32.4-31l.4-.1z" fill="#fff"/>
  <path d="M763.24 585.83c43.25.98 85.9 5.98 126.88 22.1 44.1 20.1-64.25 15.8-61.15 46.53-23.4-129.18-288.28 8.16 55.58 6.92l59.47 73.38c-11.52-12.1-39.22-56.58-175.43-58.6-52-.44-87.4 6.65-120.2 15-9.5 3.84-70 21.52-74.2 67.96.2 9.23 3.4 12.3 7.6 13.3-3.8-2.03-5.2-5.6-6.3-9.27 2.3 3.58 4.8 4.1 7.4 4.7-4.6-3.28-5.2-5.78-6.8-8.5 1.6 2.2 3.5 3.3 5.9 3.03-3.4-2.1-5.2-4.78-6-7.8.9 2.16 2.8 3.3 5.6 3.63-2.2-2.1-4.5-4.1-4.9-7.3 2.5 2.4 4.6 2.7 6.6 2.8-1-1.5-4.2-2.3-5.4-5.4 1.3.1 2.9.2 3.9-.3-1.9-1.1-2.2-2.2-2.2-3.4.3-.7 2-.6 3.2-.8-.8-.4-1.3-1-1.6-1.7 3.4-4.3 7.1-7.3 10.8-8.6 1.3.1 2.1.4 2.3.9-3.3.6-4.8 1.6-6.5 2.5 1.6.4 2.9 1.1 5.4.6-.5 1.1-1 2.1-2 2.5-1.6 0-3.1 0-6.3.8 1.1.8 1.9 1.7 5.4 1.6.8 1 .2 1.2.2 1.7-1.3.4-3.6.6-6.1.7 2.1 2.4 5.8 1 5.1 4.2-1.8.2-3.7.1-4.9 1.1.9.6 1.6 1.1 4.5 1.9.7.7.8 1.3.8 2-2.1 0-3.6.4-4.1 1.38.7.5 1.8.93 4.5 1 .8.5.9 1 1 1.5-1 .7-3.1 1.3-5.5 1.84 2.13.9 5.2 1.15 9.32.5-2.2-2.7-3-5.74-3-8.93 1.2-20.6 29.4-25.4 47.53-20.95-13.6-4.3-27.3-5.9-41.7 5.2 5.6-11.1 21.6-12.1 40.6-10.2-14.5-4.8-27.5-3.5-38.9 4 8.63-9.7 22.9-11.3 41-7.4-16.05-6.4-29.53-5.6-40.24 2.95 6.3-8.1 18.2-11.4 38-7.62-13.7-6.8-26.2-3.7-38.4 3.2 10.1-8.3 22.6-11.4 38.5-7.3l-3.5-2.3c5.5 1.67 11 3.37 15.6 8.46v1c1.7 1.2 2.7 2.4 4.04 3.6-1.2-.3-2.6-.7-3.1-.3 1.4 1.1 2.8 2.3 4.7 3.17.8 1.5 1.8 2.44 1.9 3.8-3.6-2.1-5.9-3.1-7.3-3.4 2.8 2.03 5.54 4.1 8.96 6 1.16 1.63 1.7 2.74 1.9 4.23-9.94-6.8-12.1-7.47-13-7.16 4.9 3.5 9.8 7.3 14.6 10 2.1 2.1 2.7 4.6 3.9 6.8-14.2-11.9-18.53-13.7-21.3-13.9 7 4.98 13.9 9.28 21.1 15.9 3 2.5 5.7 5.7 9.8 6 2.1.3 4.2 0 6.3-.5-1.8.98-4 1.68-6.8 2-4.62-.9-9.4-3.7-14.12-7.8-11.46-8.85-22.8-17.94-39.6-17.23-14.87.7-26.64 6.56-26.48 15.6.3-1.5 1.1-2 2-2.43.43-1.8 1.5-2.9 4.05-2.3 1.95-.8 3.3-2 4.4-3.4H608c-1.2 1.8-1.4 3.4-7.1 6.5-1.53.26-2.16-.2-3.1-.3.7.7 1 1.7 3.1 1.6 4.13-1 6.75-4.57 9.24-8.3l1.8-.8c-2.9 4.9-5.7 9.9-12.2 12-1.45-.1-2.6-.8-3.6-1.9.75 1.8 2.15 3 4.46 3.2 6-2.3 9.4-8.4 13.1-13.4 2.6-.4 5.6-1.1 6.44-.2 1.4 8.4 2.75 7.4 2.8 11.4-3.6 12.7-10.9 26.2-37.1 28.9-11.5.2-14.6-8.1-14.24-17.37-.5-22.6 12-32.1 22-44.1-9.6 7.5-18 16.5-21.98 31.06 1-10.6 7.5-21.6 19.4-33.1-7.8 4.8-12.73 12.2-17.12 20.1 4.2-11.2 12.5-19.4 20.9-27.6-9 5.7-15.8 13.2-20.8 22.3 3.2-10.24 11.3-18.8 20.1-27.1-7.6 5.8-15.24 11.26-20.9 23.7 2.8-7.1 6.2-14.3 14.06-22.4-5.7 3.9-10.5 9.7-14.5 17.3 2.5-8.46 8.3-15.7 14.8-22.7-7.8 5.22-11.8 12.4-15.7 19.6 2.8-8.9 7.9-17.55 17.3-25.8-7.8 5.3-13.8 11.8-17 20 2.4-9.2 9.6-17.35 17.4-25.4-9.2 6.2-15.4 14.3-18.85 24.3.2-8.4 9.4-19.3 21.8-31.1-10.4 7.17-18.2 15.84-22.9 26.15 3.4-9.6 9.4-18.62 18.5-27.1-8.8 6.4-15.2 14.2-19.1 23.5 2.5-8.7 7.8-16.7 14.5-24.2-6.7 5.6-12.4 12.4-15.7 21.7 1.6-9.93 8.3-18.2 15.1-26.45-5.9 6.32-12.4 11.8-15.6 22 1-9.38 8.1-18.2 16.3-27-9.1 6.3-14.1 15.7-18 26 .3-8 5.7-18 17.2-30.3-11.9 9.7-16 19.2-18.8 28.6 1.5-13.8 10.78-24.7 20.5-35.4-8.13 6.95-16.6 12.8-21.4 31.7-.24-13.8 11-25.4 22.58-36.9-9.4 6.9-18.5 14.8-24.2 33.3 1.32-10.6 9.1-22.86 20.5-35.5-11.1 9.2-17.2 20.6-21.2 31.84 1.5-11.86 10.05-23.7 20.4-35.5-12.1 10.95-20.87 23.1-22.38 37.9-.7-26.5 32.1-53.66 67.2-71.5 34.6-18 92.3-25.6 136.1-25.9zm-147.7 154.4c-2.68.14-8.5 10.13-14.66 12.92-1.75.63-3.5-1.34-5.23-3.2 1.14 1.85.63 4.05 5.64 5.02 6.6-3.7 11.3-12.37 14.7-14.62-.2-.1-.3-.13-.5-.12zm3.08 1.87c-4.2-.16-8.98 12.8-17.65 14.9-5.3-.82-6.4-4.2-6.6-8.12-.42 5.06.08 9.68 5.86 11.65-5.05 1.87-10.1 2.03-15.16 2.56 6.67 1 11.77 4.1 27.44-7.1-7.9 10.5-17 9.6-25.7 12.3 10.4 2.2 20.3-1.2 29.8-12.3-5.8 8.7-15 15.2-29.9 17.1 17.3 6.4 45.3-25.1 32.4-31-.1-.1-.2-.1-.3-.1z" fill="#fff"/>
  <path d="M891.5 707.95c.85.67 1.9 1.23 2.1 2.22 5.48-1.7 10.1-1.37 14.56-.65-3.7-2.07-8.8-2.96-16.65-1.57zm-5.33-3.12c3.8-.57 7.52-1.08 10.93-1.3l1.56 1.82c-2.9-.42-5.8-.3-8.72 1.7-.67-1.62-2.48-1.53-3.77-2.22zm-14.7-10.15l20.56 6.9-6.5 2.6c-3.3-1.47-8.32-1.96-13.28-2.47l4.42-2.2c-4.58 1.2-9.63 3-13.27 3.2-1.28-.3 5.4-2.9 11.84-5.4-3.4-.5-7.23 1.3-10.93 2.4.6-1.8 3.5-3.3 7.2-4.8zm-236.6 13.27c-.83.67-1.9 1.23-2.1 2.22-5.47-1.7-10.1-1.37-14.55-.65 3.7-2.07 8.8-2.96 16.66-1.57zm5.33-3.12c-3.78-.57-7.5-1.08-10.92-1.3l-1.56 1.82c2.9-.42 5.8-.3 8.72 1.7.67-1.62 2.48-1.53 3.77-2.22zm12.5-9.37l-18.34 6.12 6.5 2.6c3.3-1.47 8.3-1.96 13.28-2.47l-4.43-2.2c4.6 1.2-.2.6 3.5.8 1.3-.3 4.5-.6-2-3.1 3.4-.5-.9-1.1 2.8 0-.5-1.8 2.5-.2-1.2-1.7z" fill="#fff"/>
  <path d="M701.03 602.9c-27.5 3.77-52.48 10.54-75.15 21.36v5.2c6.07-1.2 10.77-1.44 13.02 3.86v31.37c-1.07 6.6-5.4 11.5-12.03 15.1l.2 5.3c20.34-7.9 41.1-14.9 62.9-19.8v-5.6c-2.14.3-4.18.5-6.7.8-4.8 0-8.9-.8-11.03-5.8v-13.2l12.82 9.4v-28.6l15.97 11.5v-31.2zm-27.43 8.93c3.53 1.05 8.4 2.96 12.24 5.1 3.37 2.34 7.8 5.74 12.03 8.83v2.56c-4.16-3.3-8.52-7.03-12.8-9.76-3.63-2.03-7.55-3.9-12.2-5.15-1.05-.4-1.58-.4-2.98 0 .8-1 2-1.4 3.7-1.5zm-1.2 4.43l10.47 4.66-10.42 12.12-.06-16.78zm-37.82 8.86c3.82-.15 6.95 1.82 9.12 7.3v28c-.67 4.1-1.56 7.74-3.34 9.62.73-2.02 1.43-4.05 1.8-7.52v-28.85c-1.08-4.64-4.75-6.38-8.36-8.5l.78-.05zm38.3 11.9l9.58 6.45v2.18l-10.32-7.4.23-.38.18-.32c0 .03-.17.35.33-.52zm4.53 26.75c1.3.22 2.5.65 3.7 1.25-6.9.34-31.7 8.06-47.1 14.9.4-.7.4-1.1 1.8-2.5 14.6-6.2 28.2-10 41.7-13.65zm83.6-65.94c-1.3 0-2.7 0-4 .02-18.1.13-36.5 1.34-55.6 5.1v4.9c6.3-1.13 11.3 1.97 13.6 7.16v32.8c-2.3 4.6-6 8.4-13.1 10.6l-.1 5.1c1.6-1.7 54.7-5.7 55.8-4.8V653c-8.6.14-11.5-4.1-13.4-9.08v-31.6c2.3-5.13 6.2-7.6 9.9-8.63 8.3-2.1 18.2 30.9 31 55.4l19.7 1.6 18.3-43.5c2.1-4.2 5.2-6.8 9.2-7.8 5.3 2.2 7.5 5.9 7.8 10.4v33.3c-.6 5.3-5.2 6.7-12.9 4.9v5.8c16.1 1.3 41.4 9.3 70.1 19.7v-31.7l-4.2-1.2-10.8 6.8v-24.1l10.5 12.8 3.9 1.5v-25.3c-25.2-11-57.6-20-107-24-9.4-.3-18.8-.6-28.2-.6zm-3.6 3.5h3.6c3.6 3.63 5.4 7.25 7.3 10.9l19.5 42.8 15.5.8-.4 1.95-16.2-1.43L766.9 613c-2.4-4.8-5.26-8.83-9.6-11.68zm-6.6 0c-2.4 1.64-4.8 3.93-7.2 6.18.5-2.1 2.3-4.1 5.2-6l2.1-.1zm46.3 1.32c-2.5 1.54-5 3.72-7.5 5.88.6-2.08 2.4-4 5.4-5.84l2.1-.1zm10.9 1.27h3.6c3.5 3.07 5.6 6.88 5.9 11.67l-12.8 32.8-.4-1.9 11.5-29c1.3-7.5-3.1-10.7-7.6-13.8zm-6.1 1c8.6 1.34 11.1 7.45 11.8 9.87l-10.4 25.5-12.5-27c.5-6.1 5.9-7.2 11.1-8.5zm-92.8.33c5.2-.1 7.4 2.78 9.6 7.3l.3 34.53c.1 1.85-.7 3.24-1.7 4.53.5-1.5.7-3.3.9-5.1l-.2-31.6c-1.2-6.1-5.8-7.3-9.7-9.5h1.1zm119.7 1.8c.5 0 1 .07 1.5.23-3.4 1.02-6.2 3.94-8.9 7 2.1-3.98 4.3-7.3 7.5-7.24zm10.3.9c2.3 1.53 4.5 5.2 4.8 9.46l.4 34c-.4 3.8-2 6.3-3.1 7.3.7-1.9 1.3-3.9 2-6.5l-.6-32.8c-.9-3.3.7-5.6-6.7-11.3l3.4-.1zm27.9 7.25l7.2 2.07 19.9 23.9.1 2.6-21.8-25.83-5.4-1.06.1-1.68zm1.8 4.94l1.9.12 8.4 10.14-10.2 6.4v-16.7zm1.5 20.1l8.9 10.92v3l-10.2-12.6 1.3-1.3zm-1.3 6.23l10.7 12.6-10.6 6.5v-19.1zm-119.8 8c1.5.4 1.7 1.22 2.3 1.88-13.1-1.07-36.6 2.74-42.8 3.38.6-.54 1.1-.97 2.5-2.32 13.3-1.5 25.7-2.2 38.1-2.9zm90.2 6.4c19.8 5.16 39.1 10.48 54.8 16.9l-.4 2.2c-21.3-8.64-40.6-14.3-58.1-17.4l3.8-1.7zM769 847.07l-84.28-159.7-5.5 1.33 80.5 159.27 14.33 1.54 74.12-160.3-3.3-.2-73.27 158.1z"/>
  <path d="M775.83 682.22l32.64 65.27 26.7-60.8-4.1-1.1-29.88 41.2-23.1-45.7z"/>
</svg>
