<svg version="1" xmlns="http://www.w3.org/2000/svg" width="400" height="400" viewBox="0 0 300.000000 300.000000"><path d="M129 2.5C68.7 11.5 20.2 55.3 5.6 114c-11 44-2 88 25.4 126.2 6.3 8.7 22 24.2 31.8 31C80 283.8 104.2 294 125 297.7c13.3 2.4 36.4 2.4 50 0 31.6-5.5 57.6-19 80.6-42 26-26 39-54 43.5-92.2 3-25.5-3-57-16-82.2-23-43.5-66-73.3-114-79-12-1.7-29-1.5-40 0zm-4.6 92v30l3.3-3.6c10.5-12 28.7-16 44.3-11 6.5 2 13.8 8 17.6 14.3 6 10 6.4 13.2 6.4 53.6v37h-20v-33.7c0-22.8-.4-35-1.2-37.8-1.7-6-5.8-11.7-10.3-14-5.4-2.8-17.5-3.4-22.8-1.2-5 2.2-10.7 8-13.7 14-2.5 5-2.5 5.5-3 38.6l-.5 33.4-10.2.3-10.3.3V64l10.3.2 10.2.3v30z" fill="#009688"/></svg>