<?xml version="1.0" encoding="UTF-8" standalone="no"?>
<svg width="1800" style="vector-effect:non-scaling-stroke" xmlns="http://www.w3.org/2000/svg" height="1200">
 <g stroke="null">
  <title>background</title>
  <rect id="canvas_background" height="1202" width="1802" y="-1" x="-1" fill="none"/>
 </g>
 <g stroke="null">
  <title>Layer 1</title>
  <g id="svg_1" transform="matrix(1 0 0 1 0 0) translate(904.12 611.04) scale(1.8751) translate(416 -416) scale(1.7693) translate(-416 416) scale(.87498) translate(0 -351)">
   <g id="svg_2">
    <polygon id="svg_3" points="84.157 143 42.878 214.5 84.157 286 125.44 214.5" fill="#303F9F"/>
    <polygon id="svg_4" points="331.84 0 290.56 71.5 331.84 143 373.12 71.5" fill="#3F51B5"/>
    <polygon id="svg_5" points="373.12 71.5 249.28 286 331.84 286 414.4 143" fill="#7986CB"/>
    <polygon id="svg_6" points="249.28 0 84.157 286 166.72 286 331.84 0" fill="#FF4081"/>
    <polygon id="svg_7" points="84.157 0 1.596 143 42.878 214.5 166.72 0" fill="#536DFE"/>
    <polygon id="svg_8" points="249.28 0 290.56 71.5 331.84 0" fill="#fff" fill-opacity=".2"/>
    <polygon id="svg_9" points="208 71.5 249.28 0 290.56 71.5" fill="#fff" fill-opacity=".1"/>
    <polygon id="svg_10" points="208 71.5 249.28 143 290.56 71.5" fill="#fff" fill-opacity="0"/>
    <polygon id="svg_11" points="166.72 143 208 71.5 249.28 143" fill-opacity=".1"/>
    <polygon id="svg_12" points="166.72 143 208 214.5 249.28 143" fill-opacity=".2"/>
    <polygon id="svg_13" points="125.44 214.5 166.72 143 208 214.5" fill-opacity=".3"/>
    <polygon id="svg_14" points="125.44 214.5 166.72 286 208 214.5" fill-opacity=".4"/>
    <polygon id="svg_15" points="84.157 286 125.44 214.5 166.72 286" fill-opacity=".5"/>
    <polygon id="svg_16" points="84.157 0 125.44 71.5 166.72 0" fill="#fff" fill-opacity=".2"/>
    <polygon id="svg_17" points="42.878 71.5 84.157 0 125.44 71.5" fill="#fff" fill-opacity=".1"/>
    <polygon id="svg_18" points="42.878 71.5 84.157 143 125.44 71.5" fill="#fff" fill-opacity="0"/>
    <polygon id="svg_19" points="1.598 143 42.878 71.5 84.157 143" fill-opacity=".1"/>
    <polygon id="svg_20" points="1.598 143 42.878 214.5 84.157 143" fill-opacity=".2"/>
    <polygon id="svg_21" points="125.44 214.5 84.157 143 42.878 214.5" fill="#fff" fill-opacity="0"/>
    <polygon id="svg_22" points="125.44 214.5 84.157 286 42.878 214.5" fill-opacity=".2"/>
    <polygon id="svg_23" points="373.12 71.5 331.84 0 290.56 71.5" fill-opacity=".2"/>
    <polygon id="svg_24" points="373.12 71.5 331.84 143 290.56 71.5" fill="#fff" fill-opacity="0"/>
    <g id="svg_25">
     <polygon id="svg_26" points="331.84 143 373.12 71.5 414.4 143" fill="#fff" fill-opacity=".2"/>
     <polygon id="svg_27" points="331.84 143 373.12 214.5 414.4 143" fill="#fff" fill-opacity=".1"/>
     <polygon id="svg_28" points="290.56 214.5 331.84 143 373.12 214.5" fill="#fff" fill-opacity="0"/>
     <polygon id="svg_29" points="290.56 214.5 331.84 286 373.12 214.5" fill-opacity=".1"/>
     <polygon id="svg_30" points="249.28 286 290.56 214.5 331.84 286" fill-opacity=".2"/>
    </g>
   </g>
   <rect id="svg_31" height="416" width="416" y="-65" fill="none"/>
  </g>
  <g id="svg_32" display="none">
   <g id="svg_33" display="inline">
    <polygon id="svg_34" points="84.157 143 42.878 214.5 84.157 286 166.72 286" fill="#303F9F"/>
    <polygon id="svg_35" points="331.84 0 249.28 0 331.84 143 373.12 71.5" fill="#3F51B5"/>
    <polygon id="svg_36" points="373.12 71.5 249.28 286 331.84 286 414.4 143" fill="#7986CB"/>
    <polygon id="svg_37" points="84.157 0 1.596 143 42.878 214.5 166.72 0" fill="#536DFE"/>
    <polygon id="svg_38" points="249.28 0 290.56 71.5 331.84 0" fill-opacity=".5"/>
    <polygon id="svg_39" points="84.157 286 125.44 214.5 166.72 286" fill-opacity=".5"/>
    <polygon id="svg_40" points="84.157 0 125.44 71.5 166.72 0" fill="#fff" fill-opacity=".2"/>
    <polygon id="svg_41" points="42.878 71.5 84.157 0 125.44 71.5" fill="#fff" fill-opacity=".1"/>
    <polygon id="svg_42" points="42.878 71.5 84.157 143 125.44 71.5" fill="#fff" fill-opacity="0"/>
    <polygon id="svg_43" points="1.598 143 42.878 71.5 84.157 143" fill-opacity=".1"/>
    <polygon id="svg_44" points="1.598 143 42.878 214.5 84.157 143" fill-opacity=".2"/>
    <polygon id="svg_45" points="125.44 214.5 84.157 143 42.878 214.5" fill="#fff" fill-opacity="0"/>
    <polygon id="svg_46" points="373.12 71.5 331.84 143 290.56 71.5" fill="#fff" fill-opacity="0"/>
    <g id="svg_47">
     <polygon id="svg_48" points="331.84 143 373.12 71.5 414.4 143" fill="#fff" fill-opacity=".2"/>
     <polygon id="svg_49" points="331.84 143 373.12 214.5 414.4 143" fill="#fff" fill-opacity=".1"/>
     <polygon id="svg_50" points="290.56 214.5 331.84 143 373.12 214.5" fill="#fff" fill-opacity="0"/>
     <polygon id="svg_51" points="290.56 214.5 331.84 286 373.12 214.5" fill-opacity=".1"/>
     <polygon id="svg_52" points="249.28 286 290.56 214.5 331.84 286" fill-opacity=".2"/>
    </g>
    <polygon id="svg_53" points="125.44 214.5 84.157 286 42.878 214.5" fill-opacity=".2"/>
    <polygon id="svg_54" points="373.12 71.5 331.84 0 290.56 71.5" fill-opacity=".2"/>
   </g>
   <rect id="svg_55" height="416" width="416" y="-65" fill="none"/>
  </g>
  <g id="svg_56" display="none">
   <g id="svg_57" display="inline">
    <polygon id="svg_58" points="249.28 0 84.157 286 166.72 286 331.84 0" fill="#FF4081"/>
    <polygon id="svg_59" points="249.28 0 290.56 71.5 331.84 0" fill="#fff" fill-opacity=".2"/>
    <polygon id="svg_60" points="208 71.5 249.28 0 290.56 71.5" fill="#fff" fill-opacity=".1"/>
    <polygon id="svg_61" points="208 71.5 249.28 143 290.56 71.5" fill="#fff" fill-opacity="0"/>
    <polygon id="svg_62" points="166.72 143 208 214.5 249.28 143" fill-opacity=".2"/>
    <polygon id="svg_63" points="125.44 214.5 166.72 143 208 214.5" fill-opacity=".3"/>
    <polygon id="svg_64" points="125.44 214.5 166.72 286 208 214.5" fill-opacity=".4"/>
    <polygon id="svg_65" points="84.157 286 125.44 214.5 166.72 286" fill-opacity=".5"/>
    <polygon id="svg_66" points="166.72 143 208 71.5 249.28 143" fill-opacity=".1"/>
   </g>
   <g id="svg_67" display="inline">
    <polygon id="svg_68" points="331.84 0 166.72 286 249.28 286 373.12 71.5" fill="#FF4081"/>
    <polygon id="svg_69" points="290.56 71.5 331.84 0 373.12 71.5" fill="#fff" fill-opacity=".1"/>
    <polygon id="svg_70" points="290.56 71.5 331.84 143 373.12 71.5" fill="#fff" fill-opacity="0"/>
    <polygon id="svg_71" points="249.28 143 290.56 214.5 331.84 143" fill-opacity=".2"/>
    <polygon id="svg_72" points="208 214.5 249.28 143 290.56 214.5" fill-opacity=".3"/>
    <polygon id="svg_73" points="208 214.5 249.28 286 290.56 214.5" fill-opacity=".4"/>
    <polygon id="svg_74" points="166.72 286 208 214.5 249.28 286" fill-opacity=".5"/>
    <polygon id="svg_75" points="249.28 143 290.56 71.5 331.84 143" fill-opacity=".1"/>
   </g>
   <g id="svg_76" display="inline">
    <polygon id="svg_77" points="166.72 0 42.878 214.5 84.16 286 249.28 0" fill="#FF4081"/>
    <polygon id="svg_78" points="166.72 0 208 71.5 249.28 0" fill="#fff" fill-opacity=".2"/>
    <polygon id="svg_79" points="125.44 71.5 166.72 0 208 71.5" fill="#fff" fill-opacity=".1"/>
    <polygon id="svg_80" points="125.44 71.5 166.72 143 208 71.5" fill="#fff" fill-opacity="0"/>
    <polygon id="svg_81" points="84.16 143 125.44 214.5 166.72 143" fill-opacity=".2"/>
    <polygon id="svg_82" points="42.878 214.5 84.16 143 125.44 214.5" fill-opacity=".3"/>
    <polygon id="svg_83" points="42.878 214.5 84.16 286 125.44 214.5" fill-opacity=".4"/>
    <polygon id="svg_84" points="84.16 143 125.44 71.5 166.72 143" fill-opacity=".1"/>
   </g>
   <rect id="svg_85" height="416" width="416" y="-65" fill="none"/>
   <g id="svg_86" display="inline">
    <polygon id="svg_87" points="84.157 143 42.878 214.5 84.157 286 166.72 286" fill="#303F9F"/>
    <polygon id="svg_88" points="331.84 0 249.28 0 331.84 143 373.12 71.5" fill="#3F51B5"/>
    <polygon id="svg_89" points="373.12 71.5 249.28 286 331.84 286 414.4 143" fill="#7986CB"/>
    <polygon id="svg_90" points="84.157 0 1.597 143 42.878 214.5 166.72 0" fill="#536DFE"/>
    <polygon id="svg_91" points="249.28 0 290.56 71.5 331.84 0" fill-opacity=".5"/>
    <polygon id="svg_92" points="84.157 286 125.44 214.5 166.72 286" fill-opacity=".5"/>
    <polygon id="svg_93" points="84.157 0 125.44 71.5 166.72 0" fill="#fff" fill-opacity=".2"/>
    <polygon id="svg_94" points="42.878 71.5 84.157 0 125.44 71.5" fill="#fff" fill-opacity=".1"/>
    <polygon id="svg_95" points="42.878 71.5 84.157 143 125.44 71.5" fill="#fff" fill-opacity="0"/>
    <polygon id="svg_96" points="1.6 143 42.878 71.5 84.157 143" fill-opacity=".1"/>
    <polygon id="svg_97" points="1.6 143 42.878 214.5 84.157 143" fill-opacity=".2"/>
    <polygon id="svg_98" points="125.44 214.5 84.157 143 42.878 214.5" fill="#fff" fill-opacity="0"/>
    <polygon id="svg_99" points="373.12 71.5 331.84 143 290.56 71.5" fill="#fff" fill-opacity="0"/>
    <g id="svg_100">
     <polygon id="svg_101" points="331.84 143 373.12 71.5 414.4 143" fill="#fff" fill-opacity=".2"/>
     <polygon id="svg_102" points="331.84 143 373.12 214.5 414.4 143" fill="#fff" fill-opacity=".1"/>
     <polygon id="svg_103" points="290.56 214.5 331.84 143 373.12 214.5" fill="#fff" fill-opacity="0"/>
     <polygon id="svg_104" points="290.56 214.5 331.84 286 373.12 214.5" fill-opacity=".1"/>
     <polygon id="svg_105" points="249.28 286 290.56 214.5 331.84 286" fill-opacity=".2"/>
    </g>
    <polygon id="svg_106" points="125.44 214.5 84.157 286 42.878 214.5" fill-opacity=".2"/>
    <polygon id="svg_107" points="373.12 71.5 331.84 0 290.56 71.5" fill-opacity=".2"/>
   </g>
  </g>
  <g id="svg_108" display="none">
   <g id="svg_109" display="inline">
    <polygon id="svg_110" points="249.28 0 84.157 286 166.72 286 331.84 0" fill="#9F499B"/>
    <polygon id="svg_111" points="249.28 0 290.56 71.5 331.84 0" fill="#fff" fill-opacity=".2"/>
    <polygon id="svg_112" points="208 71.5 249.28 0 290.56 71.5" fill="#fff" fill-opacity=".1"/>
    <polygon id="svg_113" points="208 71.5 249.28 143 290.56 71.5" fill="#fff" fill-opacity="0"/>
    <polygon id="svg_114" points="166.72 143 208 214.5 249.28 143" fill-opacity=".2"/>
    <polygon id="svg_115" points="125.44 214.5 166.72 143 208 214.5" fill-opacity=".3"/>
    <polygon id="svg_116" points="125.44 214.5 166.72 286 208 214.5" fill-opacity=".4"/>
    <polygon id="svg_117" points="84.157 286 125.44 214.5 166.72 286" fill-opacity=".5"/>
    <polygon id="svg_118" points="166.72 143 208 71.5 249.28 143" fill-opacity=".1"/>
   </g>
   <g id="svg_119" display="inline">
    <polygon id="svg_120" points="331.84 0 166.72 286 249.28 286 373.12 71.5" fill="#9F499B"/>
    <polygon id="svg_121" points="290.56 71.5 331.84 0 373.12 71.5" fill="#fff" fill-opacity=".1"/>
    <polygon id="svg_122" points="290.56 71.5 331.84 143 373.12 71.5" fill="#fff" fill-opacity="0"/>
    <polygon id="svg_123" points="249.28 143 290.56 214.5 331.84 143" fill-opacity=".2"/>
    <polygon id="svg_124" points="208 214.5 249.28 143 290.56 214.5" fill-opacity=".3"/>
    <polygon id="svg_125" points="208 214.5 249.28 286 290.56 214.5" fill-opacity=".4"/>
    <polygon id="svg_126" points="166.72 286 208 214.5 249.28 286" fill-opacity=".5"/>
    <polygon id="svg_127" points="249.28 143 290.56 71.5 331.84 143" fill-opacity=".1"/>
   </g>
   <g id="svg_128" display="inline">
    <polygon id="svg_129" points="373.12 71.5 249.28 286 331.84 286 414.4 143" fill="#9F499B"/>
    <polygon id="svg_130" points="331.84 143 373.12 214.5 414.4 143" fill-opacity=".2"/>
    <polygon id="svg_131" points="290.56 214.5 331.84 143 373.12 214.5" fill-opacity=".3"/>
    <polygon id="svg_132" points="290.56 214.5 331.84 286 373.12 214.5" fill-opacity=".4"/>
    <polygon id="svg_133" points="249.28 286 290.56 214.5 331.84 286" fill-opacity=".5"/>
    <polygon id="svg_134" points="331.84 143 373.12 71.5 414.4 143" fill-opacity=".1"/>
   </g>
   <g id="svg_135" display="inline">
    <polygon id="svg_136" points="166.72 0 42.878 214.5 84.16 286 249.28 0" fill="#9F499B"/>
    <polygon id="svg_137" points="166.72 0 208 71.5 249.28 0" fill="#fff" fill-opacity=".2"/>
    <polygon id="svg_138" points="125.44 71.5 166.72 0 208 71.5" fill="#fff" fill-opacity=".1"/>
    <polygon id="svg_139" points="125.44 71.5 166.72 143 208 71.5" fill="#fff" fill-opacity="0"/>
    <polygon id="svg_140" points="84.16 143 125.44 214.5 166.72 143" fill-opacity=".2"/>
    <polygon id="svg_141" points="42.878 214.5 84.16 143 125.44 214.5" fill-opacity=".3"/>
    <polygon id="svg_142" points="42.878 214.5 84.16 286 125.44 214.5" fill-opacity=".4"/>
    <polygon id="svg_143" points="84.16 143 125.44 71.5 166.72 143" fill-opacity=".1"/>
   </g>
   <g id="svg_144" display="inline">
    <polygon id="svg_145" points="84.157 0 1.6 143 42.878 214.5 166.72 0" fill="#9F499B"/>
    <polygon id="svg_146" points="84.157 0 125.44 71.5 166.72 0" fill="#fff" fill-opacity=".2"/>
    <polygon id="svg_147" points="42.878 71.5 84.157 0 125.44 71.5" fill="#fff" fill-opacity=".1"/>
    <polygon id="svg_148" points="42.878 71.5 84.157 143 125.44 71.5" fill="#fff" fill-opacity="0"/>
    <polygon id="svg_149" points="1.6 143 42.878 214.5 84.157 143" fill-opacity=".2"/>
    <polygon id="svg_150" points="1.6 143 42.878 71.5 84.157 143" fill-opacity=".1"/>
   </g>
   <rect id="svg_151" height="416" width="416" y="-65" fill="none"/>
  </g>
 </g>
</svg>
