<svg version="1" xmlns="http://www.w3.org/2000/svg" width="400" height="400" viewBox="0 0 300.000000 300.000000"><g fill="#3f51b5"><path d="M129.5 2c-25.8 3.4-52.2 15-74 32.6-10.2 8.3-14.8 13-22.7 23C.4 98.6-8 153.8 10.8 204c13 34.7 40.7 65 74.7 81 14.4 7 24.5 10 42.5 13 53 8.8 108.8-14 141.7-57.5 6.7-9 14.3-21.7 17-28.5.8-2.5 2-5 2.3-5.5 1-1.2 4-11.5 6.4-20 8.6-32.3 4.8-69.5-10.3-101-13-28.3-36-52.5-65-67.8C207 10.4 186 4 169 2c-10-1.2-29.5-1-39.5 0zM165 77.5c14 3.6 25.6 13 30.2 24.4 2 5 2.3 7 2.3 18 0 12.2 0 13-3 19-3.7 7-11.3 15-18.7 19l-5.6 3 9.2 16.2c20 36 25.6 46.2 25.6 47 0 .7-4.5 1-11 1l-11.2-.5-9-16.5c-5-9-11.7-21.5-15-28l-7.2-13c-1-1.6-3-1.8-18.3-1.8H116v60H95V151c0-41.2.3-75.2.8-75.6.4-.6 14.7-.8 31.7-.5 24.3 0 32.4 1 37.4 2z"/><path d="M116 120.8v27.8l18.8-.3c24.2-.4 30.7-2.3 37.2-10.6 8-10.2 6.8-29.4-2.5-37.6-6.8-5-12.4-7-34-7H116v28z"/></g></svg>