<svg version="1" xmlns="http://www.w3.org/2000/svg" width="666.7" height="666.7" viewBox="0 0 500.000000 500.000000"><path d="M223 14.2c-9.2 1-27 4.8-28.5 6-.5.4-2 .8-3 .8-1.4 0-2.7.4-3 1-.3.5-1.6 1-3 1-3 0-8.7 3-8 4 .4.6 0 .7-1 .4-1.6-.7-14 5-15 6.7-.4.6-2.5 2-5 3-2.2 1-4.8 2.6-5.5 3.5-.7.8-1.8 1.5-2.5 1.5-.8 0-1.5.4-1.7.8 0 .4-2.3 2.3-4.8 4.2-6 4.5-24 22.2-24 23.5 0 .5-1.4 2.4-3 4.2-1.7 1.8-3 3.6-3 4 0 .6-.7 1.6-1.5 2.3-1 .7-2.3 3-3.2 5-1 2-3 5.4-4.5 7.6-1.5 2.3-2.8 4.5-2.8 4.8 0 .3-1.5 4-3.3 8-3.8 8-6.7 16-7.4 19.6-.2 1.4-.8 3.4-1.3 4.5-.5 1-1 3.3-1.3 5l-2.6 15c-2 13-2.5 24.3-1 31.5.6 2.5 1.5 7.4 2 11l1.6 10.8c.3 2.3 1 4.5 1.5 4.8.6.3 1 1.6 1 2.8 0 2 1 4.8 5 15.3l2 4.5c1.3 3.7 5.5 12.3 6 12.8.4.3 1.4 2.2 2.3 4.3 1 2 2.3 3.7 3 3.7.5 0 .8.3.4.6-.5.5 4 10 6 12.7.6.6 2.3 3.7 4 6.7 1.4 3 3.5 6.7 4.5 8 1 1.6 3.3 5.6 5 9l6.7 12 6 11c8 14.5 10 17.5 11 17.3.4-.2.7.4.4 1.2-.4.8.2 2.7 1.2 4.3 2.6 3.8 5.2 8.2 7 11.7.8 1.6 2.3 4.3 3.4 6l3.5 6 4.5 8 10 18c1.7 3.3 3.5 6.4 4 7 .7 1 3 5 9.6 17.4.7 1.2 1.6 2.6 2 3 .5.2 2.2 3.2 3.8 6.5l4.6 8.5c1 1.4 3.4 5.6 5.4 9.5 2 3.8 4.3 7.5 5 8 .6.6 1.2 1.6 1.4 2.4.5 2 8.3 15.4 9.6 16.2.6.4.7.8.3.8-1.2 0 5 11.2 7.8 13.7 3 2.7 4 2.8 8.3.7 3-1.4 4.2-3.7 2.5-4.7-.5-.2-.3-.2.4 0 1 .2 8-12.3 7.6-13.8 0-.5 1-1.8 2.2-3 1.4-1.3 2.5-3.4 2.5-4.7 0-1.4.4-2 1-1.8.6.3 1-.2 1-1.2s1-2.4 2-3c1-.8 2-2 2-3s.5-2.4 1.2-3c.7-.8 1-1.3.4-1.3-.4 0 .2-1.2 1.3-2.6 1-1.5 1.8-3 1.5-3.4-.3-.4.2-1 1-1.4.8-.3 1.5-1.3 1.5-2.2 0-1 .3-1.4.7-1 .3.3 1.8-2 3.3-5 1.4-3 3.3-6 4-7 1-1 3.3-5.4 5.4-9.6 2-4.3 4-8 4.6-8.3.5-.3 2-3 3.6-6.3 1.6-3 4.3-7.8 6-10.4 2-2.6 3.4-5.2 3.4-5.6 0-1.3 3-7 4-7.7 1.4-1 4-6.6 4-9 0-1 1-2.6 2-3.3 1-.7 2-1.8 2-2.6 0-.7 1-2.3 2-3.6 1-1.3 2-3 2-4s1-2.5 2-3.5 2-2.3 2-3c0-.7 1-2 2-3s2-2.4 2-3c0-.7.7-1.8 1.6-2.6.8-.8 1.3-2.2 1-3.2-.2-1 0-1.6.5-1.2.6.3 1.4-.5 2-1.8.4-1.3 1.5-3 2.4-3.7 1-.6 1.6-2 1.6-3s.5-2.2 1-2.5c.6-.3 1-1.4 1-2.4 0-.8 1-2.6 2-3.8 1.2-1.2 1.8-2.7 1.5-3.2-.4-.6 0-1.3 1-1.6.8-.3 1.5-1.2 1.5-2 0-.6.3-1.4.8-1.6.4-.2 1.8-2.6 3-5.3 1.5-2.8 3.2-5.8 4-6.7 1.5-1.8 4.5-7 8-14.5 1.3-2.3 2.6-4.4 3.2-4.8.5-.3 2.3-3.4 4-7 1.6-3.4 3.7-6.8 4.5-7.5.8-.7 1.3-1.6 1-2-.3-.4.2-1.3 1-2 1.8-1.5 2-3.4.3-2.5-.7.4-.4-.2.8-1.2 2-1.6 3.2-4 3.4-6 0-.5 1-1.7 2-3 3-3 6-9.4 6-12.5 0-1.5.5-3 1-3.3.6-.3 1-1.7 1-3s.5-2.7 1-3c.6-.3 1-2 1-3.6 0-1.7.4-3 .8-3s1-1.4 1-3.2c.2-1.7.7-3.7 1.3-4.4.6-.7 1-3.6 1-6.5-.3-3.5 0-5.5.8-5.8 1.5-.5 1.7-43.2.2-43.2-.5 0-1-2.2-1-5 0-2.7-.4-5.2-1-5.5-.5-.3-1-2-1-4s-.4-3.7-1-4c-.5-.3-1-1.7-1-3s-.4-2.7-1-3c-.5-.3-1-2-1-4 0-1.8-.7-3.8-1.5-4.5-.8-.7-1.5-2-1.5-3 0-1.2-.4-2-1-2-.5 0-1-1.4-1-3 0-1.7-.4-3-1-3-.5 0-1-.6-1-1.4 0-2.5-6.3-13.6-7.7-13.6-.8 0-1.2-.4-1-1 .4-.4 0-1.4-1-2-.8-.8-2-2.3-2.4-3.5-2-4-3.8-6.6-7.4-10.6-2-2.3-3.6-4.5-3.6-5 0-.8-19.2-18-25-22.2-11-8-30.7-18.8-34.4-18.8-.8 0-1.8-.5-2.2-1-.3-.7-1.4-1-2.4-.7-1 .3-2 0-2.4-.8-.2-.7-1.7-1.5-3.3-1.8-6.8-1.4-9-2-10.8-2.7-2.5-1-5.7-1.6-21-3.5-13-1.6-21-1.7-32.5-.3zm62.4 55.6c.3.5 2.6 1 5.3 1 2.6.2 5.2.7 5.8 1.3.5.6 1.5 1 2.3 1 .7 0 3.3 2 5.8 4.2 4 3.8 4.4 4.6 4.4 9 0 3-.5 4.8-1.5 5.2-.8.3-1.5 1-1.5 1.6 0 .5.7 1 1.5 1s1.5-.5 1.5-1c0-.6.6-1 1.4-1 .8 0 1.6-.3 1.8-.8.3-.8 9.7-5.7 11-5.7.3 0 1-.3 1.4-.8 1-1 14.2-1 15 .3.2.5 1.4 1 2.5 1 1.2 0 2 .4 1.6 1-.3.3 0 1.6 1 2.6.7 1 1.4 3.4 1.4 5.3V98l-4.2-.7c-5.6-1-25-1-30.6 0-3.4.6-4.7.4-6.2-1-2.2-2-2.8-.7-.7 1.5 1 1.2 1 1.2-.6 0-1.5-1-2-1-3.5 0-3 2.5-6 4-8 4-1.2 0-2.4.4-2.7 1-.3.5-2.3 1-4.4 1-3 0-4-.4-4.3-2-.3-1-.2-1.8.2-1.5 1.2.8 5-4.4 5-7 0-3-4.8-6.6-9.2-6.6-12-.2-21.5.3-22.5 1-.6.7-2.7 1.2-4.6 1.3-2 0-4.2.8-5 1.6-1 .6-2.3 1-3 .7-.8-.3-2.3 0-3.3.7-2.8 2-7.4 3-7.4 1.5s9.2-10 10.7-10c.7 0 1.3-.4 1.3-1 0-.4 1.6-1.5 3.5-2.4 2-1 3.5-2.2 3.5-2.8 0-.5.7-.7 1.5-.4 1 .3 1.8 0 2-1 .5-.7 1.5-1.4 2.5-1.4s2.2-.5 2.5-1c.3-.6 2-1 3.5-1s3-.4 3.2-1c.2-.5 3-1 6-1 3.2-.2 6.3-.7 7-1.2 1.7-1 6.5-1 7.2 0zm-61.8 39.5c.5.4.2 1.2-.6 1.7s-1 1.3-.6 1.7c.5.4 1 .2 1.3-.5.3-.6 1-1.2 2-1.2.7 0 2.4-.7 3.7-1.5 2-1.2 5-1.5 14.7-1.3l12.5.3.3 3c.2 1.6.8 3.5 1.3 4.2.8.7.7 1.4 0 1.8-1 .5-1 1 0 1.8.5.6 1 4.7 1 9 0 4.6.3 9.2.6 10.4l.6 2.3 2-2.4c1-1.3 1.8-3 1.8-3.5s.5-1 1-1c.6 0 1-.7 1-1.5s.4-1.5.8-1.5c.5 0 1.4-1.6 2.2-3.5.8-2 1.7-3.5 2.2-3.5.4 0 .8-.7.8-1.5s.3-1.5.8-1.5c.4 0 1.3-1.5 2-3.3 1.7-3.7 6.7-8.5 9.7-9.3 1-.2 8.3-.3 16-.2l14 .3.3 2.7c.2 1.6 0 2.8-.7 2.8-.5 0-1 1.5-1 3.4 0 2-.4 3.8-1 4-.5.4-1 2-1 3.7 0 1.7-.4 3-1 3-.5 0-1 1.8-1 4s-.4 4-1 4c-.5 0-1 .8-1 1.8s-1 4.5-2 7.8c-1.2 3.2-2.2 6.8-2.4 8 0 1-.8 3.4-1.5 5L300 162h-10.4c-8.6 0-10.6-.3-11-1.6-.7-1.5 1-8.2 2.7-11.6.6-1 1-3 1-4.7 0-1.6.5-3.2 1-3.5.6-.3 1-1.6 1-3 0-1 .5-2.6 1-3.2.7-.6 1-1.8.8-2.8-.2-1-1-.4-2.3 2.2-1 2-2.6 4.4-3.3 5-.7 1-1 2-.7 2.4.4.6.2 1-.3 1s-1.7 1.5-2.7 3.2c-3 5.8-4 7.7-5.8 9.6-1 1-1.7 2.3-1.7 2.8s-1.3 1.7-3 2.7c-2.2 1.4-5.3 1.7-15 1.7h-12v-7.3c0-4-.4-8.7-1-10.6-.5-1.8-1-6.2-1-9.7-.3-5.2-.5-6-1.4-4.7-.5 1-1.2 3-1.4 4.4-.2 1.4-.7 3-1.3 3.5-.6.5-1 2.4-1 4 0 2-.4 3.7-1 4-.5.3-1 2-1 3.5 0 1.6-.4 3.2-1 3.5-.5.3-1 1.7-1 3 0 5-2.6 6.5-11.7 6.5-5.7 0-8.3-.4-8.3-1.2 0-1.4 2-7.7 3-10 .6-1 1-3 1-4.2 0-1.4.4-3.5 1-4.8l2-6.8c.7-2.5 1.6-5.3 2-6.2.6-1 1-3 1-4.7 0-1.6.5-3.2 1-3.5 1.2-.7 1.3-4.5.2-4.5-.5 0-1.7 1-2.8 2-3 3.5-8.3 5.2-15 4.8-5.6-.3-6-.2-6.2 2.2-.2 1.4-.8 3-1.3 3.4-.6.6-1 2.2-1 3.6s-.5 3-1 3.7c-.6.5-1.2 2.5-1.2 4.2 0 1.6-.5 3.3-1 3.6-.4.3-.8 1-.8 2 0 .7-.5 2.5-1.2 4-.6 1.6-1.2 3.6-1.2 4.4 0 .8-.7 3-1.5 4.7L184 162H162v-3c0-1.7.4-3 1-3 .7 0 1.3-2.3 2.6-11.3.4-2 1-3.7 1.5-3.7.6 0 1-1.3 1-3 0-1.6.5-3.2 1-3.5.6-.3 1-2 1-4 0-1.8.7-3.8 1.5-4.5 3-2.6.8-3.3-10.5-3.4-13.2 0-14-.8-9.7-7.5 4.6-6.8 5.3-7 40.4-6.7 17 0 31.5.6 32 1zm-58.8 83c.7.6 1.2 2.3 1.2 3.8 0 1.6.5 3.2 1 3.5.6.3 1 2.4 1 4.6 0 2.2.5 4 1 4 .6 0 1 1.3 1 3 0 4 1.5 4.7 1.8 1 0-1.8 1-4.2 1.7-5.4.8-1.2 1.2-2.6.8-3-.3-.3.2-1.5 1-2.5 1-1 1.6-2.3 1.3-3-.4-.5.3-2.3 1.5-4 2-2.4 3-3 6-3s4 .5 4.5 2c.3 1 1 2 1.4 2 .3 0 1.2 2.6 2 5.7.6 3.2 1.5 6.7 2 7.8l1.6 4c.7 1.8.8 1.8 1-.5.3-1.4 1-3.4 1.4-4.5.5-1 1-3.5 1.4-5.3 2-10.8 2.6-11.5 11.4-11 5.7.3 5.7.3 5.4 3.3l-.2 5c0 1-.7 2.6-1.4 3.5-.8.8-1.6 2.8-2 4.5-.2 1.6-1 5-1.6 7.5l-1.7 7.7c-.3 1.8-1 3.3-1.4 3.3-.6 0-1 1.5-1 3.4 0 2-.4 3.7-.8 4-.4.2-1 2-1 3.8-.2 1.8-.7 3.4-1.2 3.6-.6.2-1 1.2-1 2.3 0 1.7-.7 2-5.2 2-6 0-8.8-2-8.8-6.2 0-1.5-.4-2.8-1-2.8-.4 0-1-1.2-1.3-2.8-1.3-6.4-2.3-9.3-3.2-9.5-.5 0-1 .7-1.3 1.8l-.7 3.3-.5 1.7c0 .3-.7 2-1.5 4s-1.5 4.6-1.5 5.6c0 1.2-.4 2-1 2-.5 0-1 .7-1 1.5 0 1-1.3 1.5-5.4 1.5-5 0-5.6-.2-7-3.2-1-1.7-1.6-4.4-1.6-6 0-1.6-.4-2.7-1-2.4-.4.3-1-1-1.3-2.7-1.6-10-2-11.7-2.7-11.7-.4 0-1-1.7-1.3-3.8-.7-5-1.7-9.3-2.7-11.7l-2-6.4c-1-3.4-1-4.4.2-5 2-1.4 12.2-1.2 13.6.2zm73 5l.3 5.7h-6.3c-7.2 0-7.7-.4-7.7-7 0-4.5.7-5 8-4.7l5.5.2.3 5.7zm50.2.7v7h-23v7h9.4c7 0 9.7.4 10.6 1.5 1 1.2 1 1.5 0 1.5-.8 0-1 1.4-.7 4.5.2 2.7 0 5-.8 5.5-.6.5-5 1-9.5 1.2l-8.5.3-.5 9-.5 9h-13l-.3-25.5c0-14 0-26 .3-26.7.3-1 4.8-1.3 18.5-1.3h18v7zm24.8-3c.2 1.8 0 4.3-.2 5.6-.6 2.2-1 2.4-7 2.4H299v-5.3c0-3 .3-5.7.7-6 .4-.5 3.4-.7 6.8-.5l6 .3.3 3.4zm-75 30.2l-.3 19.3-4.4.3c-2.4.2-5.4 0-6.7-.3l-2.3-.5v-38h14l-.2 19.2zm74.7.3v19h-13l-.3-19.3-.2-19.3 6.7.2 6.8.3v19zM247 283c1 .6 5 1.2 8.8 1.4 3.7.2 9.4 1 12.7 2l9.5 2.7c2 .6 4 1.2 4.8 1.3.7.2 1.8 1 2.4 1.5.7.7 2.2 1.2 3.5 1.2 1.3 0 2.3.4 2.3 1 0 .5 1.2 1 2.6 1 1.4 0 2.3.4 2 1-.3.4.3 1 1.4 1.3 2.8.7 2.5 4.2-1 10.2-1.6 2.7-3.6 6.5-4.5 8.2-1.8 3.4-4.7 4.2-8.3 2.4l-4.7-2-4.7-2c-1-.6-2.7-1-3.7-1s-2-.4-2.4-.8c-.2-.4-2.2-1-4.2-1-2-.2-4.4-.8-5-1.3-1-.8-7.7-1-19.6-.6-19.5.5-26.8 1.3-26.8 2.7 0 .6-1.3 1-3 1-1.6 0-3.2.4-3.5 1-.3.5-1.5 1-2.5 1s-4.2 1.4-7 3c-4.4 2.6-5.5 3-6.8 1.8-3.6-3-4.8-4.5-4.4-5.7.2-.6 0-1.5-.4-2-1.4-1-3.4-4.8-3.4-6.5 0-.8-.4-1.5-1-1.5-.5 0-1-1.6-1-3.5 0-2.4.5-3.5 1.5-3.5.8 0 3-1 5-2s4.4-2 5.4-2 2-.4 2.2-1c.2-.5 1.3-1 2.5-1.3 1.2-.2 2.6-.6 3-1 .3-.4 2-.7 3.3-.7 1.5 0 3.3-.6 4-1.4.6-.8 2-1.2 3-1 1 .4 2.6 0 3.4-.5.8-.6 4.8-1.3 8.8-1.5 4-.2 8.5-1 10-1.4 3-1.2 13.5-1.3 16 0zm10.3 50.5c2.6.4 4.7 1 4.7 1.6 0 .6 1.4 1 3 1 1.7 0 3 .4 3 1 0 .5.8 1 1.8 1 3 0 6.4 3.7 5.7 6-.3 1-1 2-1.6 2-.6 0-1 1-1 2s-.4 2-.8 2c-.5 0-1.5 1.8-2.2 4-.7 2-1.7 3.7-2 3.4-.6-.3-1 0-1 1 0 .7-1 2-2 3-1.6 1.5-2.3 1.7-3.2.8-.7-.7-2.2-1.2-3.4-1.2-1.3 0-2.5-.4-2.8-1-1-1.3-7.3-2.2-16-2.3-9.2 0-15.4 1-20.8 3.7-4.6 2.2-6 1.7-8-2.3-.7-1.6-1.6-3-2-3-.5 0-.8-1-.8-2s-.7-2-1.6-2.4c-1-.4-1.4-1-1-1.2.2-.4-.6-2-2-4-3.2-4.2-3-5 1.4-7 2-.8 4.5-2 5.4-2.5 1-.6 2.7-1 3.8-1 1 0 2-.5 2-1 0-.6 2-1 4.4-1 2.5 0 4.8-.5 5-1 .8-1.2 23-.8 32 .5zm-9.5 50c1.8 1 3.2 2.3 3.2 3 0 2-2 5.6-4 7-.7.7-1 1.7-.6 2.4.4.5 0 1.3-.8 1.6-1 .3-1.6 1-1.6 1.8 0 .6-1 2.2-2 3.5-2 2.8-6 2.3-7.5-1.2-2.4-5-6-11.4-7.4-12.4-2-1.6-.8-5 2-5.2 1.4-.2 3-.8 3.5-1.3 1.5-1.6 12-1 15.3.6z" fill="#F45922"/></svg>